<svg width="46" height="30" viewBox="0 0 46 30" fill="none" xmlns="http://www.w3.org/2000/svg">
<path d="M17.528 0.647949C18.7867 0.647949 19.8 1.23462 20.568 2.40795C21.3573 3.58128 21.752 5.02128 21.752 6.72795C21.752 9.37328 21.1547 12.1146 19.96 14.952C18.7653 17.7893 17.2933 20.2746 15.544 22.4079C13.816 24.5199 11.9493 26.2693 9.94401 27.656C7.96001 29.0213 6.17868 29.704 4.60001 29.704C3.32001 29.704 2.28535 29.128 1.49601 27.976C0.706678 26.824 0.312012 25.384 0.312012 23.656C0.312012 21.0106 0.909345 18.2693 2.10401 15.4319C3.29868 12.5946 4.77068 10.1199 6.52001 8.00795C8.26935 5.87462 10.1467 4.11462 12.152 2.72795C14.1573 1.34128 15.9493 0.647949 17.528 0.647949ZM19.096 7.52795C19.096 5.84262 18.84 4.51995 18.328 3.55995C17.8373 2.57862 17.1227 2.08795 16.184 2.08795C14.4773 2.08795 12.6533 3.02662 10.712 4.90395C8.62135 6.97328 6.81868 9.67195 5.30401 13C3.81068 16.328 3.06401 19.432 3.06401 22.312C3.06401 24.0186 3.34135 25.384 3.89601 26.408C4.47201 27.4106 5.22935 27.912 6.16801 27.912C8.02401 27.912 9.91201 26.92 11.832 24.936C13.8587 22.824 15.576 20.1253 16.984 16.84C18.392 13.5333 19.096 10.4293 19.096 7.52795Z" fill="#988E7B"/>
<path d="M39.4085 7.43195C39.4085 7.41062 39.3978 7.39995 39.3765 7.39995C39.3338 7.39995 37.8405 8.65862 34.8965 11.1759C33.2965 12.5413 31.4725 13.9599 29.4245 15.4319C27.3765 16.8826 25.6912 17.9813 24.3685 18.728C24.0698 18.8986 23.6432 18.9839 23.0885 18.9839C22.9605 18.9839 22.8965 18.9306 22.8965 18.8239C22.8965 18.7386 23.0885 18.5893 23.4725 18.3759C27.7392 15.8373 31.4512 13.2879 34.6085 10.7279C37.0618 8.72262 38.9392 7.06928 40.2405 5.76795C40.3898 5.59728 40.7312 4.95728 41.2645 3.84795C41.8192 2.73862 42.3525 2.03462 42.8645 1.73595C44.2298 1.01062 45.0618 0.647949 45.3605 0.647949C45.6592 0.647949 45.8085 0.839949 45.8085 1.22395C45.8085 1.58662 45.5525 2.13062 45.0405 2.85595C44.5285 3.55995 43.8458 4.27462 42.9925 4.99995C39.5792 11.0799 35.8778 18.2586 31.8885 26.5359C31.6325 27.0479 31.4405 27.4106 31.3125 27.624C31.2058 27.8373 31.0992 28.0506 30.9925 28.264C30.8858 28.4773 30.7578 28.6053 30.6085 28.648C30.4805 28.6906 30.3632 28.744 30.2565 28.808C30.1712 28.8506 29.9685 28.8933 29.6485 28.936C29.3498 28.9786 29.0832 29.032 28.8485 29.096C28.4432 29.1813 28.1232 29.2773 27.8885 29.384C27.6538 29.4906 27.4938 29.5653 27.4085 29.608C27.3232 29.6506 27.2485 29.672 27.1845 29.672C27.0352 29.672 26.9605 29.5866 26.9605 29.416C26.9605 29.3306 27.0992 29.0426 27.3765 28.552C27.6752 28.0613 28.1018 27.368 28.6565 26.472C29.2112 25.576 29.6805 24.7759 30.0645 24.0719C30.5978 23.1119 31.6858 21.1813 33.3285 18.2799C34.9925 15.3786 36.4218 12.8719 37.6165 10.7599C38.8112 8.62662 39.4085 7.51728 39.4085 7.43195Z" fill="#988E7B"/>
</svg>
