<svg width="44" height="30" viewBox="0 0 44 30" fill="none" xmlns="http://www.w3.org/2000/svg">
<path d="M17.528 0.647949C18.7867 0.647949 19.8 1.23462 20.568 2.40795C21.3573 3.58128 21.752 5.02128 21.752 6.72795C21.752 9.37328 21.1547 12.1146 19.96 14.952C18.7653 17.7893 17.2933 20.2746 15.544 22.4079C13.816 24.5199 11.9493 26.2693 9.94401 27.656C7.96001 29.0213 6.17868 29.704 4.60001 29.704C3.32001 29.704 2.28535 29.128 1.49601 27.976C0.706678 26.824 0.312012 25.384 0.312012 23.656C0.312012 21.0106 0.909345 18.2693 2.10401 15.4319C3.29868 12.5946 4.77068 10.1199 6.52001 8.00795C8.26935 5.87462 10.1467 4.11462 12.152 2.72795C14.1573 1.34128 15.9493 0.647949 17.528 0.647949ZM19.096 7.52795C19.096 5.84262 18.84 4.51995 18.328 3.55995C17.8373 2.57862 17.1227 2.08795 16.184 2.08795C14.4773 2.08795 12.6533 3.02662 10.712 4.90395C8.62135 6.97328 6.81868 9.67195 5.30401 13C3.81068 16.328 3.06401 19.432 3.06401 22.312C3.06401 24.0186 3.34135 25.384 3.89601 26.408C4.47201 27.4106 5.22935 27.912 6.16801 27.912C8.02401 27.912 9.91201 26.92 11.832 24.936C13.8587 22.824 15.576 20.1253 16.984 16.84C18.392 13.5333 19.096 10.4293 19.096 7.52795Z" fill="#988E7B"/>
<path d="M43.9845 6.50395C43.9845 7.54928 43.6112 8.66928 42.8645 9.86395C42.1178 11.0373 40.9552 12.2853 39.3765 13.6079C37.8192 14.9306 36.5605 15.9546 35.6005 16.68C34.6405 17.4053 33.2538 18.3866 31.4405 19.624C31.2698 19.752 31.1418 19.8479 31.0565 19.9119C30.9712 19.9546 30.8645 20.0293 30.7365 20.136C30.6085 20.2213 30.4912 20.296 30.3845 20.36C29.9365 20.68 29.3072 21.1173 28.4965 21.6719C27.7072 22.2266 27.1312 22.632 26.7685 22.888C26.4272 23.1226 25.9792 23.4426 25.4245 23.8479C24.8912 24.2533 24.3792 24.6693 23.8885 25.096C25.9152 25.2026 28.1125 25.4586 30.4805 25.864C33.2112 26.3333 35.4405 26.568 37.1685 26.568C37.8938 26.568 38.5018 26.4293 38.9925 26.152C39.5045 25.8746 39.8672 25.576 40.0805 25.256C40.1232 25.2133 40.1658 25.1386 40.2085 25.0319C40.2512 24.9253 40.2938 24.8506 40.3365 24.8079C40.4005 24.7439 40.4645 24.712 40.5285 24.712C40.6565 24.712 40.7205 24.7759 40.7205 24.9039C40.7205 24.9466 40.6032 25.1706 40.3685 25.576C40.1338 25.9813 39.8565 26.472 39.5365 27.048C39.2165 27.6026 38.9818 28.0613 38.8325 28.424C38.5765 29.0213 37.5738 29.32 35.8245 29.32C35.2485 29.32 34.5338 29.2346 33.6805 29.0639C32.8485 28.9146 31.9418 28.7226 30.9605 28.488C29.9792 28.232 29.3498 28.0719 29.0725 28.0079C26.6192 27.5173 24.4538 27.2719 22.5765 27.2719C21.5525 27.2719 20.7952 27.496 20.3045 27.944C20.1978 28.0506 20.0485 28.232 19.8565 28.488C19.6858 28.7226 19.5152 28.8933 19.3445 29C19.1952 29.128 19.0032 29.1919 18.7685 29.1919C18.6618 29.1919 18.5658 29.1386 18.4805 29.0319C18.3952 28.9253 18.3525 28.8293 18.3525 28.7439C18.3525 28.4239 18.6725 28.008 19.3125 27.496C20.0592 26.8773 20.7418 26.3333 21.3605 25.864C21.9792 25.3733 22.6725 24.8613 23.4405 24.3279C24.2085 23.7733 24.7738 23.3573 25.1365 23.08C25.5205 22.8026 26.2565 22.2906 27.3445 21.5439C28.4325 20.7973 29.2112 20.264 29.6805 19.944C32.9232 17.704 35.0778 16.1146 36.1445 15.176C39.2165 12.5093 40.7632 9.94928 40.7845 7.49595C40.7845 6.02395 40.4005 4.89328 39.6325 4.10395C38.8645 3.31462 37.7872 2.91995 36.4005 2.91995C35.0565 2.91995 33.7658 3.42128 32.5285 4.42395C31.8672 4.95728 31.4405 5.45862 31.2485 5.92795C31.0565 6.33328 30.9072 6.53595 30.8005 6.53595C30.6085 6.53595 30.5125 6.43995 30.5125 6.24795C30.5125 6.09862 30.7152 5.76795 31.1205 5.25595C31.5472 4.74395 31.9098 4.33862 32.2085 4.03995C33.3818 2.95195 34.4485 2.13062 35.4085 1.57595C36.3898 0.999949 37.4992 0.711948 38.7365 0.711948C40.1445 0.711948 41.3712 1.20262 42.4165 2.18395C43.4618 3.14395 43.9845 4.58395 43.9845 6.50395Z" fill="#988E7B"/>
</svg>
