<svg width="32" height="33" viewBox="0 0 32 33" fill="none" xmlns="http://www.w3.org/2000/svg">
<g id="Icon / Instagram">
<path id="Vector" fill-rule="evenodd" clip-rule="evenodd" d="M21.3333 5.29126H10.6667C6.98477 5.29126 4 8.27603 4 11.9579V22.6246C4 26.3065 6.98477 29.2913 10.6667 29.2913H21.3333C25.0152 29.2913 28 26.3065 28 22.6246V11.9579C28 8.27603 25.0152 5.29126 21.3333 5.29126ZM25.6667 22.6246C25.6593 25.0147 23.7235 26.9506 21.3333 26.9579H10.6667C8.27647 26.9506 6.34065 25.0147 6.33333 22.6246V11.9579C6.34065 9.56773 8.27647 7.63191 10.6667 7.62459H21.3333C23.7235 7.63191 25.6593 9.56773 25.6667 11.9579V22.6246ZM22.3333 12.2913C23.0697 12.2913 23.6667 11.6943 23.6667 10.9579C23.6667 10.2216 23.0697 9.62459 22.3333 9.62459C21.5969 9.62459 21 10.2216 21 10.9579C21 11.6943 21.5969 12.2913 22.3333 12.2913ZM16 11.2913C12.6863 11.2913 10 13.9776 10 17.2913C10 20.605 12.6863 23.2913 16 23.2913C19.3137 23.2913 22 20.605 22 17.2913C22.0036 15.6989 21.3725 14.1707 20.2465 13.0447C19.1205 11.9187 17.5924 11.2877 16 11.2913ZM12.3333 17.2913C12.3333 19.3163 13.9749 20.9579 16 20.9579C18.0251 20.9579 19.6667 19.3163 19.6667 17.2913C19.6667 15.2662 18.0251 13.6246 16 13.6246C13.9749 13.6246 12.3333 15.2662 12.3333 17.2913Z" fill="#988E7B"/>
</g>
</svg>
