<svg width="104" height="41" viewBox="0 0 104 41" fill="none" xmlns="http://www.w3.org/2000/svg">
<g id="Vector">
<path d="M37.2001 27.1755V26.9427L38.5504 26.7099V11.1582L37.2001 10.9254V10.6926H43.3462V10.9254L41.9727 11.1582V26.8263H45.814C46.1865 26.8263 46.5202 26.7254 46.8151 26.5236C47.11 26.3063 47.3738 25.9649 47.6067 25.4993C47.855 25.0181 48.0878 24.3973 48.3051 23.6368L48.9104 20.7034H49.3294L50.0511 27.1755H37.2001Z" fill="#988E7B"/>
<path d="M60.2233 10.6926C61.5736 10.6926 62.7066 10.8633 63.6223 11.2048C64.538 11.5307 65.2209 12.0196 65.671 12.6715C66.1366 13.3078 66.3694 14.0993 66.3694 15.0461C66.3694 16.5982 65.7486 17.7933 64.507 18.6314C63.2653 19.4695 61.5115 19.8885 59.2455 19.8885C58.7333 19.8885 58.2366 19.873 57.7555 19.842C57.2744 19.8109 56.8398 19.7721 56.4518 19.7256V19.2134C56.9795 19.4152 57.7245 19.516 58.6867 19.516C60.0215 19.516 61.0614 19.1436 61.8064 18.3986C62.5514 17.6381 62.9239 16.5671 62.9239 15.1858C62.9239 14.2856 62.7764 13.5328 62.4815 12.9275C62.1866 12.3067 61.7521 11.8411 61.1778 11.5307C60.6191 11.2203 59.9284 11.0651 59.1058 11.0651C58.7954 11.0651 58.4695 11.0728 58.128 11.0883C57.7865 11.0883 57.4761 11.1039 57.1968 11.1349C56.9329 11.1504 56.7311 11.1737 56.5915 11.2048V26.6633L57.9418 26.9427V27.1755H51.8189V26.9427L53.1692 26.6633V11.2048L51.8189 10.9254V10.6926H60.2233Z" fill="#988E7B"/>
<path d="M85.205 10.6926V10.9254L83.8547 11.2048V26.6633L85.205 26.9427V27.1755H79.1985V26.9427L80.4324 26.6633V11.2048L79.1985 10.9254V10.6926H85.205ZM74.2397 10.6926V10.9254L73.0291 11.2048V26.6633L74.2397 26.9427V27.1755H68.2565V26.9427L69.6068 26.6633V11.2048L68.2565 10.9254V10.6926H74.2397ZM80.6187 18.9107V19.4695H72.7963V19.2367L80.6187 18.9107Z" fill="#988E7B"/>
<path d="M86.5393 27.1755V26.9427L87.9361 26.6633L94.2686 10.6926H96.457L102.65 26.6633L104 26.9427V27.1755H97.3416V27.0125L98.9946 26.6866L93.8262 13.3233H93.5701L91.3584 19.2367C91.017 20.0748 90.7532 20.8819 90.5669 21.6579C90.3962 22.4339 90.3108 23.1091 90.3108 23.6833C90.3108 24.3042 90.4194 24.8629 90.6367 25.3596C90.854 25.8562 91.1955 26.2442 91.6611 26.5236C92.1267 26.803 92.732 26.9427 93.477 26.9427V27.1755H86.5393ZM90.5203 20.4938V20.261L96.7363 19.9351V20.4938H90.5203Z" fill="#988E7B"/>
<path d="M2.13863 40.9781C0.712878 40.9781 0 40.5177 0 39.5969C0 38.9434 0.193071 38.4682 0.579214 38.1711C0.490104 38.4682 0.445549 38.7652 0.445549 39.0622C0.445549 39.9236 1.03961 40.3543 2.22775 40.3543C4.24757 40.3543 6.60898 39.3444 9.31197 37.3246C8.68821 36.9978 8.15355 36.6414 7.708 36.2553C5.21292 38.2157 3.38617 39.1959 2.22775 39.1959C1.7822 39.1959 1.55942 39.0622 1.55942 38.7949C1.55942 38.587 1.67823 38.483 1.91586 38.483C1.97527 38.483 2.06438 38.4979 2.18319 38.5276C2.2723 38.5573 2.34656 38.5721 2.40596 38.5721C3.53469 38.5721 5.19807 37.7107 7.39611 35.9879C6.41591 35.0374 5.9258 34.0721 5.9258 33.0919C5.9258 31.0126 7.84166 29.1562 11.6734 27.5225C12.4457 27.1958 13.2922 26.9136 14.213 26.676C15.1635 26.4086 16.1883 26.171 17.2873 25.9631C17.6734 25.4581 18.0299 24.9829 18.3566 24.5373C18.6834 24.0621 18.9655 23.6165 19.2032 23.2007C19.1141 22.4284 19.0695 21.7898 19.0695 21.2848C19.0695 19.4135 19.4111 18.4779 20.0943 18.4779C20.5101 18.4779 20.8368 18.9531 21.0745 19.9036C21.3715 19.4878 21.7279 18.9086 22.1438 18.166C22.5596 17.3937 23.02 16.458 23.525 15.359C24.2973 13.755 25.025 12.1065 25.7082 10.4134C26.3914 8.72033 27.03 6.98269 27.624 5.20049C27.7429 4.87375 27.8765 4.63613 28.025 4.48761C28.0547 4.51731 28.0696 4.57672 28.0696 4.66583C28.0696 6.92328 26.0052 11.8986 21.8765 19.5917C22.2923 19.3838 22.619 19.2798 22.8567 19.2798C23.0349 19.2798 23.124 19.3838 23.124 19.5917C23.124 20.364 21.9359 21.671 19.5596 23.5126C19.3517 23.869 19.0992 24.2551 18.8022 24.671C18.5348 25.0571 18.2378 25.4581 17.9111 25.874C18.5645 25.7552 19.3071 25.666 20.1388 25.6066C21.3269 23.9433 22.4705 22.2205 23.5695 20.4383C24.6686 18.6561 25.723 16.8145 26.7329 14.9135C29.3468 10.0421 30.6538 6.38862 30.6538 3.95295C30.6538 2.5272 30.0152 1.71036 28.7379 1.50243C28.4706 1.44303 28.3369 1.35392 28.3369 1.2351C28.3369 1.05688 28.5003 0.967773 28.827 0.967773C29.9855 0.967773 30.8766 1.33906 31.5003 2.08165C32.1241 2.79453 32.436 3.73018 32.436 4.88861C32.436 7.47279 31.2033 11.0223 28.7379 15.5372C27.8171 17.2303 26.8072 18.9086 25.7082 20.5719C24.6092 22.2056 23.4507 23.8244 22.2329 25.4284C22.7379 25.369 23.4507 25.3245 24.3715 25.2948C25.2923 25.2353 26.3914 25.1759 27.6686 25.1165C28.53 25.0868 29.1538 25.072 29.5399 25.072C29.926 25.0423 30.1043 25.0274 30.0746 25.0274C30.2528 25.0274 30.3419 25.072 30.3419 25.1611C30.3419 25.4581 30.0449 25.6363 29.4508 25.6957C28.8864 25.7255 28.0399 25.7849 26.9112 25.874C25.8121 25.9334 24.8022 26.0076 23.8814 26.0967C22.9903 26.1561 22.2032 26.2304 21.52 26.3195C17.718 31.072 14.0793 34.7404 10.6041 37.3246C11.3764 37.7107 12.7724 38.082 14.7922 38.4384C15.0596 38.4682 15.1932 38.5573 15.1932 38.7058C15.1932 38.8543 15.0447 38.9286 14.7477 38.9286C13.4407 38.9286 11.8962 38.5127 10.114 37.681C7.02482 39.8791 4.36638 40.9781 2.13863 40.9781ZM37.4261 38.082C36.3271 38.082 35.1835 37.6068 33.9954 36.6563C32.837 35.7057 32.0053 34.6661 31.5003 33.5374C30.8468 32.1117 30.5201 30.0621 30.5201 27.3888C30.5201 26.5868 30.6389 25.1462 30.8766 23.067C31.1142 20.9581 31.3815 18.2254 31.6785 14.8689L32.0795 10.3689C32.1092 9.8045 32.2132 9.52232 32.3914 9.52232C32.7182 9.52232 32.8815 9.84905 32.8815 10.5025V17.9877C32.8815 26.1561 33.5498 31.7849 34.8865 34.8741C35.6885 36.7157 36.6241 37.6365 37.6934 37.6365C39.0895 37.6365 40.6341 36.285 42.3272 33.582C42.2975 34.1463 41.9707 34.8444 41.347 35.676C40.6935 36.5671 40.1143 37.1612 39.6093 37.4582C38.8667 37.8741 38.139 38.082 37.4261 38.082ZM9.84663 36.9236C12.817 34.5473 15.9804 31.1314 19.3368 26.676C18.8913 26.7651 18.4457 26.869 18.0002 26.9878C17.5843 27.0769 17.1685 27.1809 16.7526 27.2997C14.1982 30.3592 11.4358 33.1364 8.46543 35.6315C8.61395 35.8691 8.80702 36.0919 9.04465 36.2998C9.28227 36.5077 9.5496 36.7157 9.84663 36.9236ZM8.24266 35.3196C9.5793 34.2206 10.8862 33.0176 12.1635 31.7107C13.4704 30.4037 14.7625 29.0077 16.0398 27.5225C14.1091 28.1463 12.4308 28.9483 11.0051 29.9285C8.98524 31.2651 7.97533 32.6463 7.97533 34.0721C7.97533 34.4879 8.06444 34.9038 8.24266 35.3196Z" fill="#988E7B"/>
<path d="M73.0163 32.7431L74.1512 35.5083H74.2551L74.7666 34.0617C74.7986 33.9765 74.8199 33.8779 74.8305 33.766C74.8465 33.6488 74.8545 33.5263 74.8545 33.3984C74.8545 33.2972 74.8438 33.1959 74.8225 33.0947C74.8012 32.9882 74.7613 32.8923 74.7026 32.807C74.644 32.7164 74.5668 32.6445 74.4709 32.5912C74.3803 32.5326 74.2631 32.5033 74.1192 32.5033V32.4234H75.9334V32.5033L75.4379 32.5832L74.0153 36.4194H73.328L72.4409 34.2456L73.0163 32.7431ZM71.0183 36.4194L69.4359 32.5832L68.9884 32.5113V32.4234H71.1382V32.5113L70.6507 32.5832L71.8415 35.5083H71.9454L72.4569 34.0617C72.4889 33.9765 72.5128 33.8779 72.5288 33.766C72.5448 33.6488 72.5528 33.5263 72.5528 33.3984C72.5528 33.2972 72.5395 33.1959 72.5128 33.0947C72.4915 32.9882 72.4516 32.8923 72.393 32.807C72.3397 32.7164 72.2651 32.6445 72.1692 32.5912C72.0733 32.5326 71.9534 32.5033 71.8095 32.5033V32.4234H73.6237V32.5033L73.1282 32.5832L71.7056 36.4194H71.0183Z" fill="#988E7B"/>
<path d="M78.327 32.3035C78.7692 32.3035 79.1341 32.3914 79.4219 32.5672C79.7096 32.7431 79.9254 32.9775 80.0692 33.2705C80.2131 33.5636 80.285 33.8939 80.285 34.2615H77.256V34.1816L79.246 34.0777C79.246 33.7208 79.2141 33.4171 79.1501 33.1666C79.0862 32.9162 78.985 32.7271 78.8464 32.5992C78.7132 32.466 78.5374 32.3994 78.319 32.3994C78.1058 32.3994 77.9194 32.4687 77.7595 32.6072C77.605 32.7457 77.4851 32.9562 77.3999 33.2386C77.32 33.5156 77.28 33.8726 77.28 34.3095C77.28 34.5493 77.3093 34.781 77.3679 35.0048C77.4319 35.2232 77.5224 35.423 77.6396 35.6042C77.7622 35.78 77.9114 35.9212 78.0872 36.0278C78.263 36.129 78.4681 36.1796 78.7026 36.1796C78.8464 36.1796 78.9903 36.1583 79.1341 36.1157C79.278 36.0731 79.4139 36.0118 79.5417 35.9319C79.6696 35.852 79.7868 35.7561 79.8934 35.6442C79.9999 35.5269 80.0879 35.3911 80.1571 35.2366L80.245 35.3165C80.1225 35.5669 79.9813 35.772 79.8215 35.9319C79.6669 36.0917 79.4991 36.2169 79.318 36.3075C79.1368 36.3927 78.953 36.4514 78.7665 36.4833C78.58 36.5206 78.3962 36.5393 78.2151 36.5393C77.8847 36.5393 77.5917 36.4833 77.3359 36.3714C77.0802 36.2595 76.8617 36.1077 76.6806 35.9159C76.5048 35.7188 76.3689 35.4976 76.273 35.2526C76.1824 35.0021 76.1371 34.7437 76.1371 34.4773C76.1371 34.1417 76.1904 33.8406 76.297 33.5742C76.4089 33.3078 76.5607 33.0814 76.7525 32.8949C76.9497 32.7031 77.1814 32.5566 77.4478 32.4554C77.7142 32.3541 78.0073 32.3035 78.327 32.3035Z" fill="#988E7B"/>
<path d="M85.2363 30.4653V36.1317H85.7079V36.2196L84.1175 36.5393V35.2685L84.0535 35.2046C84.0003 35.3538 83.9283 35.5083 83.8377 35.6681C83.7525 35.8227 83.6486 35.9665 83.5261 36.0997C83.4035 36.2276 83.2597 36.3341 83.0945 36.4194C82.9347 36.4993 82.7562 36.5393 82.559 36.5393C82.2393 36.5393 81.957 36.4514 81.7119 36.2755C81.4721 36.0997 81.2856 35.8599 81.1524 35.5563C81.0192 35.2472 80.9526 34.9009 80.9526 34.5173C80.9526 34.0218 81.0326 33.6115 81.1924 33.2865C81.3522 32.9562 81.5654 32.7111 81.8318 32.5513C82.1035 32.3861 82.3992 32.3035 82.7189 32.3035C82.9799 32.3035 83.2037 32.3461 83.3902 32.4314C83.582 32.5166 83.7392 32.6205 83.8617 32.7431C83.9843 32.8603 84.0695 32.9802 84.1175 33.1027V30.8729H83.6539V30.785L85.2363 30.4653ZM83.1664 32.5752C82.948 32.5752 82.7588 32.6552 82.599 32.815C82.4391 32.9695 82.3166 33.1826 82.2314 33.4544C82.1461 33.7261 82.1035 34.0351 82.1035 34.3814C82.1035 34.7704 82.1381 35.098 82.2074 35.3644C82.2766 35.6255 82.3752 35.8227 82.5031 35.9559C82.6363 36.0837 82.7934 36.1477 82.9746 36.1477C83.1131 36.1477 83.2383 36.113 83.3502 36.0438C83.4621 35.9692 83.566 35.8679 83.6619 35.7401C83.7578 35.6069 83.8431 35.455 83.9177 35.2845C83.9923 35.1087 84.0589 34.9169 84.1175 34.7091V33.798C84.1175 33.6328 84.0935 33.4757 84.0455 33.3265C83.9976 33.172 83.931 33.0414 83.8457 32.9349C83.7605 32.823 83.6593 32.7351 83.542 32.6711C83.4248 32.6072 83.2996 32.5752 83.1664 32.5752Z" fill="#988E7B"/>
<path d="M90.5201 30.4653V36.1317H90.9916V36.2196L89.4012 36.5393V35.2685L89.3373 35.2046C89.284 35.3538 89.2121 35.5083 89.1215 35.6681C89.0363 35.8227 88.9324 35.9665 88.8098 36.0997C88.6873 36.2276 88.5434 36.3341 88.3783 36.4194C88.2184 36.4993 88.0399 36.5393 87.8428 36.5393C87.5231 36.5393 87.2407 36.4514 86.9956 36.2755C86.7559 36.0997 86.5694 35.8599 86.4362 35.5563C86.303 35.2472 86.2364 34.9009 86.2364 34.5173C86.2364 34.0218 86.3163 33.6115 86.4762 33.2865C86.636 32.9562 86.8491 32.7111 87.1155 32.5513C87.3873 32.3861 87.683 32.3035 88.0026 32.3035C88.2637 32.3035 88.4875 32.3461 88.674 32.4314C88.8658 32.5166 89.0229 32.6205 89.1455 32.7431C89.268 32.8603 89.3533 32.9802 89.4012 33.1027V30.8729H88.9377V30.785L90.5201 30.4653ZM88.4502 32.5752C88.2317 32.5752 88.0426 32.6552 87.8828 32.815C87.7229 32.9695 87.6004 33.1826 87.5151 33.4544C87.4299 33.7261 87.3873 34.0351 87.3873 34.3814C87.3873 34.7704 87.4219 35.098 87.4911 35.3644C87.5604 35.6255 87.659 35.8227 87.7868 35.9559C87.9201 36.0837 88.0772 36.1477 88.2584 36.1477C88.3969 36.1477 88.5221 36.113 88.634 36.0438C88.7459 35.9692 88.8498 35.8679 88.9457 35.7401C89.0416 35.6069 89.1268 35.455 89.2014 35.2845C89.276 35.1087 89.3426 34.9169 89.4012 34.7091V33.798C89.4012 33.6328 89.3773 33.4757 89.3293 33.3265C89.2814 33.172 89.2148 33.0414 89.1295 32.9349C89.0443 32.823 88.943 32.7351 88.8258 32.6711C88.7086 32.6072 88.5834 32.5752 88.4502 32.5752Z" fill="#988E7B"/>
<path d="M92.4473 31.7041C92.2927 31.7041 92.1542 31.6828 92.0317 31.6402C91.9145 31.5922 91.8212 31.5283 91.7519 31.4484C91.6827 31.3631 91.648 31.2672 91.648 31.1607C91.648 31.0541 91.6827 30.9609 91.7519 30.8809C91.8212 30.7957 91.9145 30.7317 92.0317 30.6891C92.1542 30.6412 92.2927 30.6172 92.4473 30.6172C92.6071 30.6172 92.7456 30.6412 92.8628 30.6891C92.9854 30.7317 93.0813 30.7957 93.1505 30.8809C93.2198 30.9609 93.2544 31.0541 93.2544 31.1607C93.2544 31.2672 93.2198 31.3631 93.1505 31.4484C93.0813 31.5283 92.9854 31.5922 92.8628 31.6402C92.7456 31.6828 92.6071 31.7041 92.4473 31.7041ZM91.4962 36.4194V36.3395L91.9278 36.2595V32.6791H91.4562V32.5912L93.0467 32.3035V36.2595L93.4782 36.3395V36.4194H91.4962Z" fill="#988E7B"/>
<path d="M99.0112 36.3395V36.4194H97.0052V36.3395L97.4288 36.2595V33.5503C97.4288 33.2679 97.3808 33.0548 97.2849 32.9109C97.189 32.767 97.0505 32.6951 96.8693 32.6951C96.7468 32.6951 96.6216 32.7431 96.4937 32.839C96.3712 32.9295 96.2513 33.0494 96.1341 33.1986C96.0222 33.3425 95.9209 33.4916 95.8304 33.6462C95.7398 33.8007 95.6679 33.9419 95.6146 34.0697V36.2595L96.0381 36.3395V36.4194H94.0641V36.3395L94.4957 36.2595V32.6791H94.0322V32.5912L95.6146 32.3035V33.6142L95.6785 33.6701C95.8117 33.3984 95.9609 33.1613 96.1261 32.9589C96.2966 32.7511 96.4857 32.5912 96.6935 32.4793C96.9013 32.3621 97.1304 32.3035 97.3808 32.3035C97.5993 32.3035 97.7831 32.3381 97.9323 32.4074C98.0814 32.4713 98.1987 32.5672 98.2839 32.6951C98.3745 32.8177 98.4411 32.9668 98.4837 33.1427C98.5263 33.3132 98.5476 33.5023 98.5476 33.7101V36.2595L99.0112 36.3395Z" fill="#988E7B"/>
<path d="M101.271 38.1377C100.994 38.1377 100.74 38.1084 100.511 38.0498C100.282 37.9911 100.085 37.9112 99.92 37.81C99.7548 37.7141 99.6269 37.6049 99.5363 37.4823C99.4458 37.3598 99.4005 37.2346 99.4005 37.1067C99.4005 36.9735 99.4324 36.8563 99.4964 36.755C99.5603 36.6591 99.6482 36.5846 99.7601 36.5313C99.872 36.478 99.9945 36.4514 100.128 36.4514C100.346 36.4514 100.519 36.4993 100.647 36.5952C100.775 36.6911 100.839 36.8163 100.839 36.9708C100.839 37.0934 100.812 37.1919 100.759 37.2665C100.711 37.3465 100.647 37.4104 100.567 37.4583C100.493 37.5063 100.415 37.5436 100.336 37.5702C100.256 37.5969 100.189 37.6208 100.136 37.6422C100.088 37.6635 100.064 37.6901 100.064 37.7221C100.064 37.77 100.109 37.818 100.2 37.8659C100.296 37.9139 100.421 37.9512 100.575 37.9778C100.735 38.0098 100.906 38.0258 101.087 38.0258C101.38 38.0258 101.636 37.9805 101.854 37.8899C102.078 37.8047 102.248 37.6821 102.366 37.5223C102.488 37.3678 102.549 37.1893 102.549 36.9868C102.549 36.8057 102.499 36.6485 102.397 36.5153C102.302 36.3874 102.15 36.2835 101.942 36.2036C101.734 36.1184 101.46 36.0571 101.119 36.0198C100.778 35.9825 100.368 35.9638 99.888 35.9638V35.844L100.919 35.0368L101.007 35.1007L100.495 35.5163L100.543 35.5882C100.97 35.5882 101.351 35.6042 101.686 35.6362C102.027 35.6681 102.323 35.7188 102.573 35.788C102.824 35.852 103.029 35.9345 103.189 36.0358C103.354 36.1317 103.476 36.2489 103.556 36.3874C103.636 36.5259 103.676 36.6805 103.676 36.851C103.676 37.144 103.578 37.3838 103.38 37.5702C103.183 37.762 102.904 37.9032 102.541 37.9938C102.184 38.0897 101.761 38.1377 101.271 38.1377ZM101.526 35.1646C101.244 35.1646 100.978 35.138 100.727 35.0847C100.477 35.0314 100.256 34.9489 100.064 34.837C99.8773 34.7251 99.7281 34.5866 99.6163 34.4214C99.5097 34.2509 99.4564 34.0538 99.4564 33.83C99.4564 33.6062 99.5097 33.4011 99.6163 33.2146C99.7228 33.0281 99.8693 32.8683 100.056 32.7351C100.248 32.5965 100.469 32.49 100.719 32.4154C100.975 32.3408 101.252 32.3035 101.55 32.3035C101.811 32.3035 102.064 32.3408 102.31 32.4154C102.56 32.4847 102.784 32.5859 102.981 32.7191C103.183 32.8523 103.343 33.0121 103.46 33.1986C103.578 33.3851 103.636 33.5955 103.636 33.83C103.636 34.0058 103.594 34.1763 103.508 34.3415C103.428 34.5013 103.303 34.6452 103.133 34.773C102.962 34.8956 102.744 34.9915 102.477 35.0607C102.211 35.13 101.894 35.1646 101.526 35.1646ZM101.55 35.0687C101.758 35.0687 101.931 35.0234 102.07 34.9329C102.208 34.8423 102.315 34.7118 102.389 34.5413C102.464 34.3654 102.501 34.1576 102.501 33.9179C102.501 33.6408 102.467 33.3878 102.397 33.1586C102.328 32.9295 102.222 32.7457 102.078 32.6072C101.939 32.4687 101.763 32.3994 101.55 32.3994C101.343 32.3994 101.167 32.4687 101.023 32.6072C100.879 32.7457 100.772 32.9295 100.703 33.1586C100.634 33.3878 100.599 33.6408 100.599 33.9179C100.599 34.1523 100.634 34.3575 100.703 34.5333C100.778 34.7038 100.887 34.837 101.031 34.9329C101.175 35.0234 101.348 35.0687 101.55 35.0687ZM102.182 32.4793L101.71 32.3435C101.827 32.3381 101.95 32.3195 102.078 32.2875C102.206 32.2502 102.331 32.2049 102.453 32.1517C102.576 32.0931 102.691 32.0344 102.797 31.9758C102.909 31.9119 103.01 31.8533 103.101 31.8C103.191 31.7414 103.269 31.6908 103.333 31.6482L103.62 32.3435H102.182V32.4793Z" fill="#988E7B"/>
</g>
</svg>
