<svg width="258" height="53" viewBox="0 0 258 53" fill="none" xmlns="http://www.w3.org/2000/svg">
<path d="M190.679 31.8138C193.405 35.241 195.973 38.5027 198.573 41.7251C200.196 43.742 201.764 45.8219 203.592 47.6418C204.97 49.0127 206.727 50.0133 208.279 51.1557C207.405 52.0854 205.443 52.5423 203.71 51.5575C202.103 50.6515 200.519 49.4933 199.314 48.1067C196.028 44.3171 192.94 40.3541 189.773 36.4621C189.576 36.2258 189.355 36.0052 189.111 35.7373C188.362 38.4791 188.78 49.9582 189.718 51.849H184.526C184.754 50.3994 185.179 48.9733 185.179 47.5394C185.211 36.3124 185.195 25.0855 185.124 13.8585C185.116 12.527 184.722 11.2034 184.494 9.76159C188.441 9.49372 192.593 9.58039 196.312 12.0306C198.904 13.7403 200.361 16.1984 200.543 19.3105C200.913 25.5267 198.652 30.3405 190.671 31.8138H190.679ZM188.851 29.915C193.885 29.1902 197.391 24.857 197.005 19.9959C196.651 15.4736 192.971 11.7155 188.851 11.7312V29.915Z" fill="#988E7B"/>
<path d="M112.823 52.5265C100.816 52.5029 91.2431 42.9068 91.251 30.8841C91.251 18.9165 100.934 9.26523 112.893 9.28886C124.869 9.3125 134.504 18.9953 134.473 30.955C134.434 42.9777 124.83 52.5502 112.83 52.5265H112.823ZM130.935 31.1047C131.03 27.1181 130.029 23.4152 128.068 19.9643C121.985 9.28097 108.001 7.65011 99.9962 16.6947C93.3073 24.2424 92.9291 36.0839 99.1138 44.0492C105.535 52.3138 116.667 53.4011 124.357 46.4049C128.832 42.3317 130.857 37.116 130.935 31.1125V31.1047Z" fill="#988E7B"/>
<path d="M173.567 16.6475C172.109 15.5051 170.841 14.3233 169.399 13.3936C163.38 9.51736 156.36 9.96644 150.561 14.5045C139.177 23.4152 140.839 42.5523 153.642 49.1546C158.794 51.8096 164.049 51.6363 169.147 48.8315C169.643 48.5558 170.139 47.8073 170.163 47.2558C170.258 44.5062 170.258 41.7487 170.163 38.999C170.132 38.0142 169.738 37.0451 169.485 35.9815H174.575C174.339 37.25 173.953 38.5578 173.882 39.8893C173.764 42.2056 173.771 44.5377 173.882 46.854C173.945 48.1303 173.425 48.8158 172.408 49.4382C161.394 56.2216 146.362 51.4787 141.288 39.5899C135.907 26.9842 143.1 12.8185 156.478 9.80099C161.733 8.6192 166.775 9.36766 171.534 11.9361C174.031 13.2833 174.189 13.63 173.582 16.6554L173.567 16.6475Z" fill="#988E7B"/>
<path d="M30.1289 35.8475H34.9348C34.7063 37.3681 34.3754 38.8571 34.2966 40.3619C34.1863 42.3552 34.1154 44.3722 34.3124 46.3497C34.4857 48.0672 33.69 48.8629 32.3664 49.6193C21.5333 55.8118 7.40701 51.3762 2.08109 40.0704C-3.34726 28.5441 2.24654 14.8353 14.1826 10.5257C20.3043 8.31184 26.2684 8.73729 32.0197 11.8099C34.5803 13.1729 34.6275 13.3541 34.0603 16.5056C32.7367 15.4498 31.5234 14.3232 30.1604 13.4172C23.9127 9.29668 16.7668 9.76939 10.8027 14.6226C0.38719 23.1 1.24596 40.8583 12.5202 48.1066C17.9407 51.5889 23.6448 51.8095 29.4592 48.9023C30.4361 48.4139 30.7434 47.823 30.7119 46.7672C30.6331 44.3958 30.7513 42.0165 30.6725 39.645C30.6331 38.4396 30.3416 37.242 30.1446 35.8711L30.1289 35.8475Z" fill="#988E7B"/>
<path d="M247.263 9.52515C250.682 23.6436 254.094 37.762 257.521 51.9199H251.903C253.928 49.1072 251.817 46.4679 251.478 43.7419C251.454 43.5685 250.879 43.3479 250.556 43.3401C247.586 43.3085 244.616 43.2849 241.645 43.3637C241.244 43.3715 240.645 43.9152 240.511 44.3328C240.093 45.6091 239.857 46.9406 239.55 48.2563C239.25 49.5484 238.998 50.8405 240.881 51.8962H236.201C238.447 49.4144 238.392 46.2079 239.085 43.2928C241.701 32.3809 244.143 21.4297 246.664 10.4942C246.735 10.1791 246.861 9.87969 246.956 9.5803C247.058 9.56455 247.153 9.54878 247.255 9.52515H247.263ZM251.115 41.654C249.54 34.4766 247.996 27.4411 246.451 20.4055C246.302 20.4055 246.16 20.4055 246.01 20.4055C244.395 27.4647 242.772 34.5239 241.141 41.654H251.115Z" fill="#988E7B"/>
<path d="M63.1873 51.8963H57.1838C58.8856 50.7855 58.6177 49.4855 58.2553 48.154C57.8299 46.6019 57.9244 44.4511 56.9159 43.6475C55.9075 42.8439 53.8275 43.356 52.2203 43.3244C50.9755 43.3008 49.7228 43.4348 48.5016 43.2929C46.8392 43.0881 46.0041 43.6317 45.8623 45.3492C45.7835 46.3656 45.5471 47.3819 45.2162 48.351C44.7672 49.6667 44.909 50.7776 46.2326 51.8727H42.2854C44.6726 46.3656 45.3659 40.2597 46.8156 34.3665C48.7852 26.354 50.55 18.2942 52.4094 10.258C52.4567 10.061 52.5591 9.87196 52.8348 9.18652C56.3566 23.7068 59.768 37.7779 63.1873 51.9042V51.8963ZM56.7899 41.6542C55.1984 34.3744 53.6306 27.2364 52.0706 20.0905C51.9682 20.1062 51.8658 20.1141 51.7555 20.1299C50.1088 27.26 48.4622 34.3822 46.7762 41.6542H56.782H56.7899Z" fill="#988E7B"/>
<path d="M217.75 50.4702C220.964 49.8714 224.399 51.652 227.125 48.792C227.22 48.9102 227.33 48.989 227.33 49.0678C227.43 51.0112 226.526 51.9829 224.62 51.9829C220.736 51.9829 216.851 51.9829 213.306 51.9829C213.542 50.3047 213.976 48.666 213.984 47.0273C214.047 35.95 214.039 24.8805 213.984 13.8032C213.984 12.519 213.558 11.2427 213.314 9.87183H227.275V12.4481C225.817 12.0778 224.328 11.5342 222.792 11.353C221.153 11.156 219.475 11.3057 217.734 11.3057V28.3786C220.554 27.9374 223.548 29.4028 226.03 26.6138V30.9943C224.84 30.6476 223.54 30.104 222.193 29.9228C220.775 29.7259 219.31 29.8755 217.757 29.8755V50.4544L217.75 50.4702Z" fill="#988E7B"/>
<path d="M77.3926 50.4938C80.7252 49.8556 84.1603 51.6835 87.0044 48.6896V51.8332H72.6654C74.312 49.9817 73.7448 47.7284 73.7526 45.5934C73.792 34.9573 73.792 24.3212 73.7448 13.6772C73.7448 12.4008 73.3587 11.1324 73.1381 9.78516H78.5901C76.8489 11.9596 77.4241 14.4729 77.4162 16.8838C77.3689 27.3623 77.4004 37.833 77.4004 48.3115C77.4004 48.9418 77.4004 49.5721 77.4004 50.486L77.3926 50.4938Z" fill="#988E7B"/>
<path d="M249.177 0C247.649 1.44178 246.128 2.88356 244.6 4.33322C246.175 2.94659 246.498 0.338779 249.177 0Z" fill="#988E7B"/>
</svg>
