<svg width="124" height="64" viewBox="0 0 124 64" fill="none" xmlns="http://www.w3.org/2000/svg">
<path d="M100.917 28.9606C101.454 28.9606 101.965 28.8563 102.477 28.6625C103.605 28.1955 104.4 27.4005 104.847 26.2727C104.847 26.2628 104.688 26.2628 104.355 26.2628C104.117 26.7298 103.799 27.1273 103.421 27.4602C102.885 27.8924 102.328 28.111 101.747 28.111C100.743 28.111 100.082 27.6788 99.7644 26.7994C99.6153 26.3671 99.5359 25.7312 99.5359 24.8766V24.1264C99.5359 22.7949 100.276 22.0298 101.767 21.8509C101.618 21.9055 101.483 22.0198 101.344 22.2136C101.175 22.4521 101.096 22.6905 101.096 22.9191C101.096 23.2371 101.22 23.5203 101.459 23.7637C101.697 24.0022 101.97 24.1264 102.303 24.1264C102.636 24.1264 102.939 24.0022 103.193 23.7488C103.446 23.4954 103.555 23.2023 103.555 22.8396C103.555 22.303 103.317 21.8807 102.85 21.5528C102.303 21.1752 101.632 20.9963 100.833 20.9963C100.207 20.9963 99.5905 21.1205 99.0092 21.359C98.0752 21.7565 97.4144 22.4073 97.0368 23.2818C96.8182 23.7935 96.7089 24.3748 96.7089 25.0008C96.7089 26.0392 97.1212 26.9733 97.941 27.793C98.2391 28.0762 98.567 28.3048 98.9198 28.4886C99.5557 28.8066 100.217 28.9656 100.912 28.9656L100.917 28.9606Z" fill="#988E7B"/>
<path d="M106.233 28.9953C106.919 28.9953 107.565 28.6873 108.191 28.0613C108.26 28.2302 108.374 28.4041 108.543 28.573C108.827 28.8363 109.135 28.9605 109.487 28.9605H110.888V24.0518C110.888 23.1972 110.695 22.5166 110.307 22.0247C109.795 21.3291 108.861 20.9863 107.515 20.9863C106.785 20.9863 106.228 21.0658 105.841 21.2149C105.349 21.3838 104.976 21.6571 104.713 22.0346C104.519 22.3327 104.43 22.6259 104.43 22.9339C104.43 23.3215 104.569 23.6394 104.852 23.8928C105.08 24.0866 105.344 24.176 105.627 24.176C105.98 24.176 106.288 24.0369 106.561 23.7537C106.78 23.5053 106.889 23.2171 106.889 22.9091C106.889 22.7153 106.834 22.5464 106.73 22.3725C106.606 22.134 106.432 21.9601 106.218 21.8608C106.501 21.7813 106.765 21.7365 107.003 21.7365C107.356 21.7365 107.619 21.826 107.813 21.9999C107.997 22.1688 108.086 22.4222 108.086 22.7402C108.086 22.9439 108.076 23.0929 108.051 23.1724C107.927 23.6394 107.505 23.9673 106.775 24.1512C105.736 24.3449 104.966 24.802 104.474 25.5175C104.236 25.8951 104.112 26.2577 104.112 26.6353C104.112 27.3508 104.36 27.9669 104.877 28.4687C105.274 28.8214 105.731 28.9903 106.233 28.9903V28.9953ZM106.953 28.2898C106.804 28.2898 106.69 28.2202 106.591 28.0712C106.452 27.8526 106.387 27.5793 106.387 27.2514V26.5211C106.387 25.9398 106.556 25.4976 106.899 25.1796C107.013 25.0753 107.147 24.9759 107.296 24.8716C107.729 24.5884 107.992 24.335 108.091 24.1064V26.2031C108.091 26.8192 107.932 27.3557 107.624 27.8079C107.386 28.1258 107.167 28.2848 106.953 28.2848V28.2898Z" fill="#988E7B"/>
<path d="M113.522 32.3887C113.884 32.3887 114.217 32.2397 114.51 31.9565C114.774 31.6832 114.898 31.3503 114.898 30.9529V21.7614H115.753V20.9864H114.898C114.898 20.3603 114.968 19.8834 115.102 19.5505C115.32 19.0288 115.772 18.6711 116.468 18.4922C116.706 18.4376 116.89 18.4028 116.99 18.4028C116.865 18.4575 116.741 18.5618 116.612 18.7307C116.443 18.9692 116.364 19.2077 116.364 19.4362C116.364 19.7641 116.503 20.0722 116.761 20.3454C117.024 20.574 117.308 20.6882 117.626 20.6882C117.924 20.6882 118.182 20.5839 118.411 20.3901C118.684 20.1517 118.823 19.8436 118.823 19.466C118.823 18.8152 118.48 18.3183 117.809 17.9507C117.288 17.6874 116.692 17.5532 116.031 17.5532C115.335 17.5532 114.684 17.7023 114.073 17.9855C112.856 18.5916 112.195 19.5803 112.101 20.9814H111.018V21.7564H112.086C112.086 28.8413 112.086 32.3837 112.096 32.3837H113.507L113.522 32.3887Z" fill="#988E7B"/>
<path d="M120.06 28.9604C120.87 28.9604 121.62 28.7418 122.291 28.3245C123.076 27.8227 123.647 27.142 123.99 26.2726L124 26.2626H123.498C123.27 26.7048 122.962 27.1072 122.574 27.46C122.037 27.8922 121.471 28.1109 120.89 28.1109C120.125 28.1109 119.543 27.8475 119.171 27.3259C119.002 27.0526 118.863 26.7098 118.773 26.2875C118.738 26.0142 118.719 25.8552 118.719 25.7956C118.992 25.8403 119.255 25.8652 119.514 25.8652C120.388 25.8652 121.163 25.6018 121.839 25.0702C122.395 24.5585 122.668 24.012 122.668 23.4307C122.668 22.745 122.42 22.1786 121.918 21.7216C121.347 21.2297 120.631 20.9912 119.777 20.9912C119.265 20.9912 118.753 21.0806 118.261 21.2744C117.337 21.652 116.667 22.2631 116.244 23.1177C115.981 23.6741 115.857 24.2803 115.857 24.941C115.857 26.0241 116.254 26.9582 117.064 27.768C117.919 28.563 118.907 28.9654 120.06 28.9654V28.9604ZM118.992 25.3733C118.788 25.3733 118.684 25.2491 118.684 24.9858V23.9275C118.709 23.1872 118.833 22.6407 119.061 22.2879C119.31 21.8905 119.563 21.6967 119.827 21.6967C120.204 21.6967 120.398 22.0842 120.398 22.8444C120.398 23.4605 120.388 23.848 120.353 23.9971C120.264 24.3747 120.055 24.7026 119.737 25.0007C119.429 25.2491 119.181 25.3783 118.997 25.3783L118.992 25.3733Z" fill="#988E7B"/>
<path d="M120.194 20.2659C120.299 20.2659 120.413 20.2212 120.512 20.1169L122.162 18.84C122.216 18.7605 122.251 18.681 122.251 18.6015C122.251 18.4873 122.197 18.373 122.067 18.2736L121.362 17.5681C120.269 18.8897 119.722 19.63 119.722 19.7989C119.722 19.9678 119.802 20.1069 119.971 20.2113C120.04 20.2461 120.11 20.2659 120.189 20.2659H120.194Z" fill="#988E7B"/>
<path fill-rule="evenodd" clip-rule="evenodd" d="M19.4759 23.1824C21.2347 22.0546 22.4569 21.046 24.5237 19.0487C25.7261 17.8862 27.9867 15.1834 29.502 13.7376C31.0174 12.2918 31.8669 11.6857 32.5079 11.5068C33.1836 11.318 33.5711 11.2534 34.679 12.2421C35.2007 12.7091 36.7409 14.458 37.2477 15.4268C37.7544 16.3907 39.3393 18.9891 40.1889 19.9977C41.0385 21.0063 41.59 21.5528 42.5539 21.7068C43.4333 21.8509 44.3822 21.7813 44.3822 21.7813L43.473 24.3351C43.473 24.3351 42.0918 24.5338 41.0435 23.6792C39.9952 22.8247 38.6786 20.6237 38.0178 19.0736C37.357 17.5185 36.0006 14.9598 35.2305 14.6418C34.4604 14.3238 33.5214 15.0244 32.6569 15.4467C31.7924 15.864 28.9207 17.444 27.9618 18.0849C27.0029 18.7258 21.9501 22.8495 20.9714 23.2818C19.9926 23.7091 19.0585 23.4557 19.4759 23.1874V23.1824Z" fill="#988E7B"/>
<path fill-rule="evenodd" clip-rule="evenodd" d="M22.5611 18.4326C22.5611 18.4326 16.0873 16.6291 11.8096 12.2619C6.10095 6.42904 4.93835 0 4.93835 0C4.93835 0 12.8678 2.44443 16.917 6.78676C19.7043 9.77274 22.725 13.2854 22.5611 18.4375V18.4326Z" fill="#988E7B"/>
<path d="M19.2772 62.9836C23.2072 62.9836 26.7744 61.7216 29.979 59.1927C31.1963 58.2885 32.4632 57.0265 33.7251 55.3522C36.9297 50.9254 38.5593 45.962 38.5593 40.4074C38.5593 34.8528 37.0688 30.426 34.0431 26.814C31.3801 23.7883 28.1258 22.2978 24.2455 22.2978C21.6719 22.2978 19.461 22.9287 17.6078 24.151C15.9385 25.3682 15.0789 26.814 15.0789 28.5777C15.0789 29.6608 15.3969 30.6098 16.0279 31.3799C16.9321 32.463 18.0152 33.0045 19.3269 33.0045C20.3205 33.0045 21.2248 32.6419 22.0346 31.9662C22.9836 31.1066 23.4804 30.0683 23.4804 28.851C23.4804 28.4883 23.391 28.0859 23.2071 27.589C22.7103 26.4165 22.0793 25.6017 21.2198 25.1943C23.2966 25.6464 24.7871 26.9084 25.6913 28.9404C26.8639 31.1961 27.4501 34.9472 27.4501 40.2285C27.4501 46.1458 26.367 50.9303 24.2455 54.587C22.755 56.9818 21.0857 58.1543 19.2772 58.1543C17.6525 58.1543 16.162 57.2054 14.761 55.2627C14.0853 54.2691 13.499 53.186 13.0469 51.9687C11.7352 48.5803 11.1043 44.7 11.1043 40.4074C11.1043 33.407 12.1874 28.3045 14.3088 25.1893C15.6205 23.1573 17.5581 21.8009 20.2261 21.0358C21.354 20.8122 22.124 20.6731 22.5315 20.6731C22.5762 20.6731 22.5762 19.8136 22.5762 18.0995C21.4036 17.8759 20.2261 17.7368 19.0536 17.7368C15.2131 17.7368 11.6011 19.1379 8.21765 21.8904C7.26869 22.6108 6.31974 23.6492 5.28135 24.9608C1.75879 29.6112 0 34.7584 0 40.4024C0 46.588 1.89791 51.9638 5.73347 56.5247C6.68243 57.6525 7.85496 58.6909 9.25603 59.7293C12.3712 61.8955 15.7149 62.9786 19.2822 62.9786L19.2772 62.9836Z" fill="#988E7B"/>
<path d="M47.86 63.1726C50.21 63.1876 52.4756 62.2138 54.6517 60.2016C56.3558 58.562 57.7817 56.2965 59.0089 53.4595L57.6178 54.2942C56.013 57.8764 54.1052 58.9197 52.406 58.8303C51.7601 58.7955 51.2484 58.5769 50.9205 58.0751C50.4882 57.3696 50.3193 56.376 50.4087 55.1388L52.4954 27.1124C52.6345 25.2542 52.088 23.8482 50.831 22.8048C49.9467 22.1391 48.9977 21.8012 47.9842 21.7963L42.9164 21.7615L40.4571 54.7811C40.2783 57.1759 40.939 59.2029 42.4792 60.8624C43.9846 62.3976 45.7981 63.1528 47.8649 63.1677L47.86 63.1726Z" fill="#988E7B"/>
<path d="M64.2855 63.0632C67.1274 63.0632 69.5072 61.6571 71.7827 59.1531C73.2583 57.4688 74.5799 55.4417 75.509 53.1414C75.509 53.1016 74.9625 53.3302 73.6657 53.3302C72.8857 55.2182 72.0113 56.654 70.9878 57.6825C70.322 58.378 69.5867 58.7507 68.8812 58.7507C67.336 58.7507 66.6107 57.5185 66.7597 55.0145L67.654 39.5778C67.7136 38.5096 67.5596 37.6054 67.1423 36.9098C67.028 36.7061 66.7995 36.3335 66.4517 35.8813C65.4232 34.8529 64.201 34.3213 62.8248 34.3213H57.6875L56.4901 54.9697C56.3659 57.1061 57.0118 58.9544 58.3831 60.5144C59.9978 62.1987 61.9951 63.0582 64.2954 63.0582L64.2855 63.0632Z" fill="#988E7B"/>
<path d="M63.252 31.7627C64.673 31.7627 65.8952 31.1565 66.9634 29.989C67.7136 29.0599 68.1061 28.0116 68.1061 26.844C68.1061 25.269 67.4751 23.9822 66.2132 22.8892C65.3039 22.2036 64.3202 21.8806 63.252 21.8806C61.8708 21.8806 60.6486 22.447 59.5804 23.6146C58.7905 24.5834 58.3979 25.6715 58.3979 26.844C58.3979 28.1755 58.9097 29.3878 59.9381 30.4361C60.9268 31.3254 62.0298 31.7676 63.252 31.7676V31.7627Z" fill="#988E7B"/>
<path d="M80.055 63.2073C85.1922 63.2073 89.8674 59.2127 94.0756 51.2286C96.2071 47.1545 97.4342 43.4034 97.7125 40.0299C97.8416 38.4649 97.5286 37.188 96.7784 36.1596C95.6705 34.9225 94.3837 34.3064 92.923 34.3064C91.6262 34.3064 90.4189 34.7585 89.3805 35.7075C88.3422 36.6564 87.7509 37.7644 87.6416 39.0859C87.5373 40.3628 87.895 41.5552 88.7297 42.5837C89.7681 43.6966 91.0151 44.2729 92.4758 44.2729C92.8534 44.2729 93.231 44.2332 93.5689 44.1884C92.4709 48.3867 90.5382 52.0533 87.8105 55.2231C86.4741 56.7484 85.5748 57.5284 85.1127 57.5284C84.4867 57.5284 83.9899 56.9521 83.7117 55.7597C83.652 55.4716 83.4235 53.6581 82.9962 50.2846C82.0324 42.7526 81.5107 38.922 81.4858 38.7133C81.0983 37.3122 80.2785 36.1596 79.0613 35.2156C78.4701 34.8032 77.7795 34.5548 77.0789 34.4356C77.0789 34.3958 74.7835 34.3958 70.1481 34.3958L73.606 57.285C74.0035 59.0537 74.6792 60.4945 75.7226 61.528C76.8852 62.6409 78.3409 63.2172 80.055 63.2172V63.2073Z" fill="#988E7B"/>
<path d="M104.777 63.2274C107.262 63.2274 109.676 62.1194 112.066 59.8688C112.285 60.4848 112.662 61.096 113.253 61.712C114.237 62.656 115.33 63.1032 116.612 63.1032H121.7L122.614 45.4407C122.773 42.3653 122.196 39.9109 120.88 38.1472C119.146 35.6481 115.822 34.4209 110.938 34.4209C108.29 34.4209 106.248 34.7091 104.817 35.2407C103.009 35.8568 101.593 36.8405 100.569 38.1919C99.8091 39.2551 99.4265 40.3233 99.3669 41.4312C99.2924 42.8224 99.7296 43.9701 100.718 44.8743C101.508 45.5699 102.442 45.8978 103.476 45.8978C104.758 45.8978 105.9 45.4059 106.949 44.3824C107.783 43.4832 108.25 42.4547 108.305 41.3517C108.34 40.6562 108.166 40.0401 107.828 39.424C107.416 38.5645 106.829 37.9484 106.064 37.5808C107.113 37.2926 108.071 37.1286 108.941 37.1286C110.223 37.1286 111.157 37.4566 111.828 38.0726C112.459 38.6887 112.742 39.588 112.682 40.7357C112.642 41.471 112.573 42.0076 112.478 42.2908C111.937 43.9701 110.342 45.1575 107.664 45.8133C103.863 46.5089 100.967 48.1484 99.0539 50.732C98.1149 52.0834 97.5932 53.395 97.5237 54.7464C97.3895 57.3299 98.1845 59.5409 99.9532 61.3444C101.334 62.6163 102.959 63.2274 104.777 63.2274ZM107.515 60.6836C106.978 60.6836 106.576 60.4352 106.233 59.9036C105.776 59.1235 105.582 58.1398 105.642 56.9524L105.776 54.3291C105.885 52.2374 106.586 50.6426 107.888 49.4949C108.32 49.1272 108.837 48.7595 109.393 48.3869C111.018 47.3634 112.016 46.4592 112.429 45.6394L112.036 53.1814C111.922 55.3923 111.241 57.32 110.039 58.9596C109.11 60.1073 108.295 60.6786 107.51 60.6786L107.515 60.6836Z" fill="#988E7B"/>
</svg>
