<svg width="134" height="73" viewBox="0 0 134 73" fill="none" xmlns="http://www.w3.org/2000/svg">
<path d="M73.5573 39.5344C75.4355 39.5266 77.3098 39.5226 79.1841 39.4281C79.4991 39.4124 79.8101 39.3572 80.1212 39.3218C80.6292 39.2667 80.8733 39.5541 80.8654 40.003C80.8221 42.4167 81.0938 44.8501 80.7158 47.2363C80.4638 48.8192 79.692 50.2446 78.1249 50.9612C77.5382 51.2289 76.9121 51.4967 76.2349 51.5597C75.9317 51.5912 75.6245 51.6857 75.3371 51.7999C75.0733 51.9062 75.1599 52.0558 75.341 52.2055C77.4082 53.9025 79.1565 55.8792 80.3575 58.2772C81.1607 59.8758 82.0861 61.4351 82.5743 63.1558C83.0586 64.8568 83.6453 66.5893 83.3146 68.4045C83.0074 70.1095 82.1727 71.5506 80.5858 72.3578C79.9283 72.6925 79.1289 72.8146 78.3808 72.8736C75.9671 73.0705 73.5691 72.9878 71.2027 72.3381C69.6119 71.9011 68.0093 71.4994 66.4658 70.9206C64.6545 70.2434 62.8629 69.5307 61.1422 68.629C59.9413 67.999 58.7797 67.2863 57.5433 66.7271C57.3819 66.6523 57.1811 66.6366 56.9999 66.6405C53.9719 66.6641 50.9479 66.487 47.9239 66.3728C44.6203 66.2507 41.3167 66.168 38.017 66.0105C36.7216 65.9475 36.0404 66.6208 35.2371 67.306C34.7607 67.7155 34.2921 68.1368 33.8432 68.5778C33.5203 68.8967 33.2565 68.8889 32.8746 68.6329C31.3941 67.6485 30.008 66.5499 28.6417 65.4199C27.6849 64.6324 26.7674 63.8094 25.8618 62.9668C25.09 62.2502 24.1923 61.6083 23.6371 60.7499C23.1843 60.0491 22.5543 59.5884 22.0227 59.0174C21.373 58.3205 20.7705 57.5842 20.1484 56.8675C19.7507 56.4108 19.3333 55.9068 19.0459 55.3634C18.534 54.4065 17.9158 53.5167 17.3528 52.5913C17.148 52.2527 17.1756 51.9731 17.4945 51.7133C18.2663 51.0793 18.8845 50.2879 19.7035 49.6972C19.9318 49.5319 20.1248 49.2051 20.0815 48.8271C19.8452 46.8228 19.668 44.8107 19.4751 42.8065C19.3609 41.6095 19.2388 40.4046 19.2192 39.2037C19.1877 37.3648 19.105 35.53 19.0813 33.6911C19.0577 31.8759 18.8766 30.0646 18.7585 28.2534C18.7309 27.8005 18.3765 27.5013 18.1245 27.202C17.2661 26.1822 16.7267 24.9813 16.1203 23.8276C15.1202 21.9257 14.372 19.9058 13.6593 17.8779C12.8246 15.5115 12.4584 13.0544 12.5253 10.5501C12.5608 9.22319 12.6907 7.87261 13.4349 6.71498C14.3523 5.28565 15.6242 4.32883 17.3606 4.1162C19.042 3.91145 20.6603 4.16738 22.3062 4.58083C23.7946 4.95489 25.1333 5.65184 26.5312 6.20703C27.7282 6.68348 28.7598 7.45524 29.8505 8.12068C30.8625 8.73494 31.7091 9.57757 32.784 10.0973C33.0714 10.2351 33.2329 10.562 33.5125 10.7628C35.1347 11.9322 36.6586 13.2237 38.0446 14.6688C38.2021 14.8303 38.3556 15.0271 38.2729 15.2634C38.1784 15.5311 37.9186 15.5626 37.6705 15.5626C36.9932 15.5705 36.4814 15.161 35.9695 14.8145C35.2647 14.3381 34.4732 13.9837 33.796 13.4994C32.9769 12.9166 32.0792 12.4953 31.2287 11.9913C29.9726 11.255 28.689 10.562 27.3463 9.97921C26.6296 9.66814 25.9248 9.31376 25.2042 9.00269C23.3536 8.19943 21.4399 7.65999 19.3924 7.7978C18.7073 7.84111 17.9788 7.99074 17.4709 8.38843C16.8645 8.86094 16.5849 9.62483 16.4983 10.4399C16.3172 12.1134 16.7542 13.6726 17.2346 15.2437C17.9513 17.5984 19.1601 19.7128 20.3374 21.8509C20.9162 22.9022 21.5147 23.9457 22.1959 24.9301C22.7196 25.6861 23.2394 26.45 23.7985 27.1824C24.275 27.8045 24.6569 28.5054 25.1018 29.159C25.72 30.0607 26.4288 30.8876 27.0982 31.746C28.1495 33.1044 29.3072 34.3841 30.3742 35.7347C31.3941 37.0223 32.4966 38.2311 33.6503 39.3966C34.7922 40.5543 35.9695 41.6804 37.0759 42.8735C38.3202 44.2201 39.6865 45.4447 40.9702 46.752C41.4663 47.2599 41.8482 47.8702 42.3877 48.3427C42.7814 48.6932 43.1713 49.0357 43.6241 49.3232C44.2108 49.6972 44.7148 50.2052 45.2306 50.6816C46.5457 51.8944 47.8963 53.056 49.2784 54.1939C50.9794 55.5918 52.7828 56.8557 54.4917 58.2417C55.8502 59.3403 57.2913 60.3129 58.7285 61.2973C59.6184 61.9036 60.5831 62.4195 61.4375 63.0534C62.8708 64.1205 64.4773 64.8765 65.9775 65.8136C67.0643 66.4909 68.2456 66.9713 69.4505 67.428C70.7459 67.9242 72.0374 68.4282 73.3801 68.755C74.3803 68.9952 75.4434 69.1763 76.4593 69.1172C77.7941 69.0385 79.0344 68.5423 79.5385 67.117C79.818 66.3255 79.8298 65.4829 79.759 64.6442C79.6369 63.2267 79.1801 61.8918 78.7037 60.5767C78.2942 59.4545 77.6721 58.411 77.1917 57.3085C76.4514 55.6075 75.1993 54.19 74.4787 52.489C74.2109 51.8629 73.8881 51.6896 73.2463 51.6975C70.6435 51.7251 68.0408 51.6778 65.4381 51.7133C64.816 51.7211 64.627 51.4179 64.5403 50.9336C64.497 50.6974 64.4813 50.4454 64.5246 50.2131C64.8356 48.4805 64.6388 46.7283 64.686 44.9879C64.7136 43.9169 64.9735 42.8853 65.5365 42.0308C66.4934 40.5858 67.8164 39.5659 69.6631 39.5305C70.9625 39.5029 72.2658 39.5266 73.5652 39.5266L73.5573 39.5344ZM14.9272 15.4012C14.8406 15.3973 14.7303 15.3973 14.6201 15.3855C14.0688 15.3343 13.9271 15.4681 14.0334 16.0194C14.2067 16.9093 14.313 17.8307 14.6201 18.6772C15.7384 21.7879 17.0811 24.8001 19.0144 27.5092C19.2507 27.8399 19.3648 28.1904 19.3727 28.5959C19.4042 29.9701 19.4712 31.3443 19.4987 32.7185C19.605 38.1681 20.0263 43.5901 20.6445 49.0042C20.68 49.3232 20.6091 49.5201 20.3847 49.7287C19.672 50.3942 18.9868 51.0872 18.2663 51.7448C17.9749 52.0125 17.8804 52.2803 18.0694 52.6228C18.7466 53.8592 19.4751 55.0641 20.3492 56.1745C21.3376 57.4267 22.2668 58.73 23.4205 59.8404C23.5701 59.9861 23.4638 60.305 23.6961 60.3168C24.0348 60.3365 24.1726 60.5846 24.3616 60.7696C25.913 62.3092 27.5116 63.7976 29.2481 65.1285C30.4097 66.0184 31.587 66.8886 32.7486 67.7745C33.0714 68.0226 33.3274 68.058 33.67 67.7509C34.4535 67.0461 35.3001 66.4043 36.0915 65.7073C36.4735 65.3726 36.8869 65.286 37.3752 65.3057C39.3597 65.3844 41.3482 65.4947 43.3366 65.5065C47.7191 65.5341 52.0977 65.8176 56.4841 65.7742C56.9566 65.7703 57.4961 65.9554 57.8307 65.3923C57.8662 65.3293 58.0394 65.3254 58.1458 65.3332C58.4765 65.3647 58.7167 65.223 58.9175 64.9789C59.2483 64.589 59.6775 64.4119 60.1854 64.3804C60.3311 64.3725 60.4571 64.3764 60.4925 64.5339C60.5201 64.6599 60.4295 64.7426 60.3153 64.778C60.1618 64.8292 59.9492 64.8411 60.0318 65.0891C60.0909 65.2742 60.272 65.2978 60.4413 65.3254C60.8863 65.3962 61.2525 65.1994 61.6462 65.0301C62.0872 64.8411 62.1384 64.6796 61.7722 64.3922C60.9335 63.7267 60.1342 62.9943 59.2325 62.4313C57.9095 61.6123 56.6455 60.7184 55.3816 59.8128C53.3459 58.3559 51.4677 56.6943 49.5028 55.1508C47.7428 53.7687 46.1205 52.2212 44.4588 50.721C42.2932 48.768 40.1866 46.7598 38.1312 44.6926C34.6465 41.1882 31.3114 37.5539 28.1219 33.7777C25.5232 30.7065 23.1764 27.4501 20.9674 24.0953C20.0303 22.6739 19.1404 21.213 18.4001 19.6695C17.7977 18.4095 17.0574 17.2164 16.7267 15.8304C16.6794 15.6296 16.5495 14.9641 15.9864 15.2358C15.6399 15.4012 15.3052 15.3776 14.9312 15.3933L14.9272 15.4012ZM70.7932 51.2801C71.9035 51.2408 73.6321 51.351 75.3568 51.2289C78.3218 51.0163 80.259 49.0751 80.3614 46.0747C80.4283 44.1453 80.3693 42.212 80.389 40.2786C80.389 39.8573 80.2197 39.7353 79.822 39.7431C76.6129 39.7864 73.3959 39.5896 70.1907 39.8573C67.8361 40.0542 65.5287 41.6095 65.2058 44.4131C64.9656 46.4645 65.127 48.5317 65.0719 50.5911C65.0562 51.1423 65.257 51.3038 65.7807 51.2919C67.2494 51.2683 68.7141 51.2841 70.7971 51.2841L70.7932 51.2801ZM79.5148 60.1121C79.9519 59.8837 80.011 59.5923 79.7905 59.104C79.2116 57.8086 78.6013 56.5328 77.6602 55.4539C77.1759 54.8948 76.8215 54.2294 76.2467 53.745C76.1561 53.6702 76.0498 53.5127 75.9198 53.6387C75.8017 53.7569 75.9317 53.8671 76.0104 53.9695C76.6168 54.7649 77.0972 55.6429 77.5736 56.5171C78.2194 57.7102 78.6446 59.0214 79.5148 60.1121ZM30.9255 10.8494C32.8982 12.1173 34.7803 13.3261 36.6861 14.5546C36.7964 14.2554 36.6507 14.2042 36.5601 14.1254C36.1073 13.7435 35.6151 13.4049 35.2056 12.9835C34.5126 12.2669 33.6896 11.7354 32.8509 11.2392C32.3312 10.9282 31.7878 10.4517 30.9255 10.8533V10.8494Z" fill="#988E7B"/>
<path d="M69.5095 29.0132C71.8129 29.0132 74.1164 28.9935 76.4199 29.0132C76.9003 29.0132 77.0341 28.8164 77.0263 28.3832C77.0144 27.7729 76.8845 27.1586 77.1365 26.5247C77.3846 26.7885 77.676 26.7491 77.991 26.6153C78.3611 26.4578 78.7706 26.5208 79.1447 26.5601C79.4124 26.5877 79.6487 26.8436 79.6487 27.202C79.6408 28.8754 79.6487 30.5489 79.6408 32.2184C79.6408 32.5767 79.5305 32.8287 79.0935 32.7972C76.79 32.6358 74.4865 32.7421 72.1831 32.746C68.4267 32.7539 64.6742 32.7697 60.9177 32.7815C60.8075 32.7145 60.6972 32.7145 60.587 32.7815C60.1027 32.7815 59.6184 32.7815 59.134 32.7815C58.8938 32.6279 58.6261 32.683 58.3741 32.6948C57.9882 32.7067 57.8504 32.5531 57.8543 32.1672C57.8858 29.5291 57.8228 26.887 57.9921 24.2527C58.063 23.1424 58.3032 22.0556 58.7088 21.02C58.8387 20.6893 59.0198 20.4136 59.4372 20.2679C60.1539 20.012 60.6618 20.3939 61.2564 20.6184C61.8076 20.8231 61.8391 21.1618 61.7053 21.6067C61.5635 22.0753 61.532 22.5557 61.532 23.04C61.532 24.8434 61.5517 26.6468 61.5241 28.4502C61.5163 28.9975 61.7053 29.151 62.2329 29.1432C64.5009 29.1117 66.7689 29.1195 69.037 29.1077C69.1984 29.1077 69.3756 29.1432 69.5174 29.0211L69.5095 29.0132Z" fill="#988E7B"/>
<path d="M69.5095 29.0133C69.3677 29.1354 69.1905 29.0999 69.0291 29.0999C66.7611 29.1117 64.493 29.1039 62.225 29.1354C61.6974 29.1432 61.5084 28.9897 61.5163 28.4423C61.5438 26.6389 61.5281 24.8356 61.5241 23.0322C61.5241 22.5478 61.5556 22.0714 61.6974 21.5989C61.8313 21.1539 61.7998 20.8153 61.2485 20.6106C60.6539 20.3901 60.146 20.0081 59.4294 20.2601C59.012 20.4098 58.8308 20.6854 58.7009 21.0122C58.2953 22.0517 58.0591 23.1345 57.9843 24.2449C57.815 26.8791 57.878 29.5212 57.8465 32.1594C57.8425 32.5453 57.9803 32.6988 58.3662 32.687C58.6182 32.6791 58.8899 32.624 59.1262 32.7736C58.7127 33.1005 58.2481 32.9508 57.8071 32.8957C57.6378 32.876 57.6063 32.6988 57.6181 32.498C57.7283 30.5017 57.748 28.5014 57.7323 26.4972C57.7283 25.8869 57.6535 25.2805 57.6102 24.6702C57.4212 22.1068 58.004 19.6971 59.894 17.8976C61.217 16.6376 62.9613 15.9249 64.8317 15.8343C69.1748 15.6256 73.5258 15.7753 77.8728 15.7871C78.3926 15.7871 78.9123 15.791 79.4321 15.7871C79.7392 15.7831 79.8613 15.917 79.8534 16.2241C79.8298 17.4487 79.814 18.6772 79.8101 19.9018C79.8101 20.1971 79.6802 20.3074 79.4124 20.3034C79.1328 20.3034 78.8572 20.2916 78.5776 20.2916C74.9157 20.2916 71.2538 20.2719 67.5958 20.2995C66.6351 20.3074 65.6664 20.3743 64.7017 20.4176C62.9023 20.5043 62.0675 21.9021 61.9809 23.3196C61.8785 24.9852 61.9258 26.6626 61.9021 28.336C61.8982 28.6747 62.0439 28.8676 62.3746 28.903C62.6306 28.9306 62.8905 28.9542 63.1503 28.9542C65.064 28.9542 66.9776 28.9542 68.8913 28.9542C69.096 28.9542 69.2968 28.9818 69.5016 28.9975L69.5095 29.0133Z" fill="#988E7B"/>
<path d="M43.9904 26.5207C41.9822 26.5207 39.9741 26.5404 37.9699 26.5089C37.4107 26.501 37.2454 26.8121 37.3005 27.2177C37.4541 28.3123 37.2572 29.3991 37.2887 30.4858C37.3044 31.1119 37.3281 31.738 37.3674 32.3601C37.3911 32.7539 37.2178 32.9704 36.828 32.9704C35.694 32.9704 34.56 32.9625 33.4259 32.9547C33.0204 32.9547 32.8117 32.7578 32.8156 32.3404C32.8196 29.2731 32.7447 26.2057 32.8511 23.1423C32.9219 21.0081 33.8709 19.2008 35.4932 17.7675C36.194 17.1454 37.0209 16.8068 37.8793 16.4603C39.2259 15.9169 40.612 15.8539 42.0255 15.846C45.8174 15.8303 49.6053 15.7948 53.3972 15.7751C53.8067 15.7751 54.2123 15.8303 54.6218 15.8224C54.9683 15.8145 55.0746 15.9523 55.0628 16.287C54.9919 18.6811 54.9053 21.079 54.8738 23.473C54.8383 26.1309 54.8462 28.7887 54.8462 31.4466C54.8462 31.738 54.9525 32.0293 54.9958 32.3247C55.0588 32.7302 54.9053 32.9783 54.4643 32.9783C53.2751 32.9822 52.086 32.9783 50.8968 32.994C50.4873 32.998 50.4007 32.7853 50.4125 32.431C50.4716 30.6669 50.5031 28.9029 50.5858 27.1428C50.6094 26.6349 50.4952 26.4577 49.9597 26.4656C47.9712 26.4931 45.9828 26.4774 43.9943 26.4774C43.9943 26.4931 43.9943 26.5089 43.9943 26.5246L43.9904 26.5207ZM33.3196 28.2611C33.3196 29.5251 33.3275 30.789 33.3157 32.053C33.3118 32.4113 33.4378 32.5491 33.8 32.5452C34.619 32.5333 35.4341 32.5334 36.2531 32.5727C36.6823 32.5924 36.7886 32.4349 36.7807 32.0333C36.7571 30.2693 36.7807 28.5013 36.7374 26.7373C36.7256 26.2057 36.9185 26.0679 37.3989 26.0679C39.7575 26.0679 42.12 26.0049 44.4747 26.0482C46.3687 26.0836 48.2626 26.0915 50.1566 26.0994C50.8338 26.0994 50.8693 26.1506 50.8614 26.8318C50.8417 28.6155 50.8457 30.3992 50.826 32.1829C50.822 32.5412 50.952 32.683 51.3142 32.6751C52.1332 32.6554 52.9483 32.6751 53.7673 32.6594C54.5745 32.6475 54.5588 32.6397 54.5863 31.8561C54.7241 27.9107 54.4249 23.9731 54.2949 20.0316C54.2792 19.5079 53.8343 18.9567 53.2751 19C52.2199 19.0866 51.2512 18.7283 50.2432 18.5787C49.7786 18.5117 49.3179 18.5432 48.8572 18.5157C48.6958 18.5039 48.4871 18.5629 48.4122 18.37C48.2154 17.8581 47.7901 17.8463 47.353 17.8542C45.2583 17.8817 43.1911 17.6967 41.1396 17.2242C40.5962 17.0982 40.0568 16.8777 39.4583 16.9367C39.0015 16.984 38.5566 17.0824 38.1116 17.1454C37.017 17.3069 36.1586 17.8739 35.4341 18.6023C34.1504 19.8859 33.5677 21.52 33.4141 23.3116C33.2724 24.9614 33.2999 26.6152 33.3196 28.269V28.2611Z" fill="#988E7B"/>
<path d="M54.1136 47.067C52.4047 47.067 50.6958 47.0552 48.983 47.0749C48.4435 47.0828 48.2348 46.8623 48.1758 46.3346C48.038 45.0707 48.0104 43.8107 48.3648 42.5782C48.6325 41.6529 49.1011 40.8536 49.9792 40.3653C50.1879 40.2511 50.3414 40.0739 50.5423 39.9479C51.5936 39.2825 52.7709 39.5069 53.897 39.4636C56.2517 39.3691 58.6064 39.4951 60.961 39.3613C61.4926 39.3298 62.032 39.4085 62.5675 39.4518C62.9061 39.4833 63.04 39.7196 63.044 40.0346C63.0518 40.704 63.0518 41.3733 63.0479 42.0427C63.0479 42.5349 62.7132 42.59 62.3234 42.59C60.0002 42.59 57.6771 42.6215 55.3539 42.5782C54.342 42.5585 53.3655 42.779 52.3653 42.8027C52.0031 42.8105 51.7865 43.1137 51.5227 43.3106C51.3849 43.4169 51.3928 43.6138 51.4439 43.7792C51.5188 44.0154 51.7393 43.9761 51.9125 43.98C53.2119 43.9958 54.5152 43.9918 55.8146 44.0154C57.0195 44.0351 58.2244 43.9642 59.4293 44.1099C60.4255 44.232 61.4217 43.9328 62.4258 43.9918C62.788 44.0115 63.04 44.0824 63.04 44.5155C63.04 46.1614 63.1778 47.8152 62.5085 49.3941C62.2092 50.1029 61.7131 50.6305 61.0713 50.9416C60.2641 51.3353 59.4017 51.5716 58.4567 51.5558C55.3736 51.5047 52.2866 51.5283 49.2035 51.5243C49.1287 51.5243 49.0539 51.5125 48.979 51.5165C48.1718 51.5519 48.1049 51.5046 48.097 50.6778C48.0931 50.0674 48.0301 49.4532 48.1443 48.8429C48.1837 48.6302 48.2348 48.4649 48.5223 48.4649C50.9793 48.4767 53.4363 48.4294 55.8934 48.5003C56.803 48.5279 57.7047 48.5476 58.6103 48.4688C59.1812 48.4176 59.4884 47.9687 59.7482 47.5829C59.9609 47.2639 59.6852 47.0788 59.2915 47.0828C57.5629 47.0985 55.8343 47.0907 54.1057 47.0907V47.0749L54.1136 47.067ZM56.7793 44.5076C55.0153 44.5076 53.2513 44.4958 51.4833 44.5076C51.0069 44.5116 50.8573 44.3147 50.9006 43.8698C50.9518 43.3382 51.1604 42.9365 51.6408 42.6452C52.1015 42.3695 52.578 42.2357 53.1095 42.2317C55.7123 42.2317 58.311 42.216 60.9138 42.2081C62.8904 42.2002 62.5715 42.5467 62.5754 40.3811C62.5754 39.944 62.3943 39.818 61.973 39.818C59.9845 39.8298 57.996 39.8023 56.0115 39.8101C54.8224 39.8101 53.6254 39.696 52.452 39.9204C50.6013 40.2748 49.1759 41.1528 48.727 43.1728C48.5223 44.0981 48.5892 45.0195 48.5774 45.9448C48.5656 46.6851 48.5853 46.689 49.3019 46.689C52.4598 46.693 55.6178 46.6969 58.7757 46.6969C59.1458 46.6969 59.5199 46.689 59.89 46.6969C60.1105 46.6969 60.3152 46.756 60.2719 47.0434C60.1892 47.6025 60.0475 48.1223 59.5474 48.4885C58.9332 48.9413 58.2283 48.9649 57.5275 48.9649C55.0941 48.9728 52.6607 48.9531 50.2272 48.9531C48.5262 48.9531 48.542 48.9531 48.5499 50.6778C48.5499 51.0951 48.6759 51.2133 49.0932 51.2133C52.011 51.1975 54.9247 51.2093 57.8425 51.2054C58.5512 51.2054 59.2403 51.0636 59.9215 50.851C61.3981 50.3982 62.1816 49.2957 62.5006 47.8979C62.7093 46.9686 62.6502 45.9803 62.603 45.0116C62.5833 44.5824 62.414 44.4919 62.0241 44.4958C60.2798 44.5116 58.5315 44.5037 56.7872 44.5037L56.7793 44.5076Z" fill="#988E7B"/>
<path d="M116.142 45.6417C116.142 47.4609 116.122 49.284 116.154 51.1031C116.166 51.6426 115.898 51.8591 115.473 51.7843C114.728 51.6544 113.984 51.6938 113.252 51.7292C112.516 51.7686 112.248 51.2488 111.921 50.8078C110.909 49.4336 109.897 48.0791 108.578 46.9569C107.944 46.4135 107.373 45.7835 106.719 45.2519C105.731 44.4487 104.625 43.8265 103.471 43.2989C103.085 43.1217 102.758 43.3343 102.79 43.732C102.928 45.5512 102.719 47.3664 102.774 49.1855C102.794 49.8589 102.983 50.5007 102.971 51.1779C102.963 51.5717 102.845 51.7686 102.447 51.8001C101.652 51.8631 100.86 51.7213 100.061 51.7568C99.5649 51.7804 99.4704 51.3709 99.4744 50.9259C99.4901 48.213 99.4901 45.5 99.494 42.791C99.494 41.9562 99.4822 41.1175 99.4901 40.2827C99.494 39.6803 99.6752 39.5819 100.27 39.4598C102.412 39.0188 104.097 39.9992 105.778 41.1018C106.46 41.5506 107.188 41.9365 107.869 42.3933C109.425 43.4367 110.83 44.6495 112.09 46.0316C112.228 46.1812 112.37 46.4096 112.567 46.3426C112.775 46.2757 112.756 46.004 112.76 45.8032C112.768 44.9487 112.764 44.0943 112.76 43.2398C112.76 42.2594 112.882 41.2829 112.831 40.2985C112.795 39.6055 113.102 39.322 113.795 39.3102C114.437 39.3023 115.075 39.255 115.717 39.4755C116.114 39.6094 116.134 39.826 116.134 40.1292C116.134 41.968 116.134 43.8068 116.134 45.6457L116.142 45.6417ZM100.002 45.5512H100.01C100.01 47.2601 100.022 48.969 100.002 50.6779C99.9981 51.1582 100.222 51.3039 100.64 51.2961C100.994 51.2882 101.349 51.2527 101.699 51.2764C102.215 51.3079 102.408 51.1307 102.4 50.5794C102.361 48.0909 102.365 45.5984 102.357 43.1099C102.357 42.4602 102.357 42.4602 103.002 42.6571C104.609 43.1532 106.019 44.0116 107.294 45.0787C109.066 46.5592 110.661 48.2326 112.012 50.0951C112.669 51.0007 113.362 51.5166 114.5 51.2646C114.622 51.237 114.76 51.2803 114.89 51.2842C115.595 51.3276 115.689 51.237 115.689 50.5164C115.689 47.4491 115.669 44.3857 115.681 41.3183C115.689 39.759 115.709 39.759 114.142 39.7669C113.331 39.7669 113.291 39.7984 113.287 40.6096C113.279 42.7476 113.287 44.8818 113.279 47.0199C113.279 47.2089 113.394 47.4806 113.169 47.5751C112.953 47.6696 112.811 47.4058 112.677 47.2798C111.728 46.3741 110.874 45.374 109.85 44.5314C108.361 43.3028 106.897 42.0507 105.164 41.1844C103.798 40.5032 102.502 39.6015 100.841 39.7827C100.041 39.8693 100.002 39.8457 100.002 40.645C100.002 42.2791 100.002 43.9132 100.002 45.5512Z" fill="#988E7B"/>
<path d="M125.616 51.6975C123.273 51.6975 120.934 51.6975 118.591 51.6975C117.922 51.6975 117.815 51.5715 117.894 50.9139C118.004 49.9729 117.741 49.0436 117.796 48.0986C117.863 46.9055 118.028 45.7203 117.973 44.5233C117.965 44.3107 118.052 44.1807 118.272 44.1256C119.071 43.9209 119.863 44.0823 120.65 44.1965C120.934 44.2398 121.056 44.5469 121.024 44.8619C120.922 45.9133 121.143 46.9685 120.938 48.0198C120.859 48.4372 121.04 48.6971 121.568 48.6932C124.131 48.6577 126.698 48.6617 129.262 48.6538C129.963 48.6538 129.915 48.6538 129.943 47.9332C129.955 47.5907 129.955 47.2402 130.002 46.8976C130.128 45.9605 129.99 45.0391 129.722 44.1492C129.537 43.5389 129.081 43.1215 128.455 42.9286C128.116 42.8223 127.769 42.7672 127.411 42.7632C124.978 42.7632 122.548 42.59 120.115 42.649C119.524 42.6648 118.93 42.59 118.335 42.5742C118.063 42.5663 117.993 42.4364 117.969 42.1962C117.922 41.6962 117.87 41.2 117.969 40.696C118.02 40.4401 118.024 40.1881 117.894 39.9361C117.693 39.5462 117.945 39.3966 118.268 39.3218C118.39 39.2942 118.528 39.31 118.658 39.31C121.241 39.31 123.824 39.2824 126.407 39.3297C127.643 39.3533 128.9 39.373 130.061 39.9164C131.152 40.4283 132.018 41.1843 132.644 42.2277C133.361 43.4169 133.562 44.6926 133.514 46.059C133.463 47.6733 133.51 49.2917 133.514 50.91C133.514 51.5951 133.38 51.7093 132.695 51.7093C130.337 51.7014 127.974 51.7093 125.616 51.7093C125.616 51.7054 125.616 51.7015 125.616 51.6975ZM125.679 51.288V51.3235C127.907 51.3235 130.136 51.3195 132.365 51.3274C132.758 51.3274 132.943 51.2053 132.935 50.784C132.888 48.7404 132.991 46.6968 132.829 44.6572C132.77 43.9248 132.573 43.2318 132.227 42.59C131.203 40.6921 129.474 39.9282 127.447 39.8297C124.718 39.6959 121.985 39.7904 119.256 39.8022C118.351 39.8061 118.323 39.8022 118.296 40.7157C118.248 42.2002 118.024 42.2868 119.792 42.2986C122.32 42.3143 124.844 42.3065 127.372 42.3065C128.372 42.3065 129.23 42.6057 129.884 43.3972C130.041 43.5901 130.286 43.6925 130.313 44.0036C130.439 45.4486 130.412 46.8937 130.396 48.3427C130.392 48.7837 130.171 48.9058 129.762 48.8979C126.939 48.8546 124.115 48.8507 121.292 48.9255C120.824 48.9373 120.623 48.7955 120.631 48.2955C120.654 47.2008 120.607 46.1023 120.631 45.0076C120.639 44.5115 120.465 44.3304 119.977 44.3973C119.686 44.4367 119.382 44.417 119.087 44.4288C118.57 44.4524 118.31 44.732 118.308 45.2675C118.308 46.9764 118.308 48.6853 118.304 50.3942C118.304 51.2329 118.315 51.2801 119.158 51.2841C121.332 51.2959 123.505 51.288 125.679 51.288Z" fill="#988E7B"/>
<path d="M93.0481 51.733C91.4534 51.733 89.8508 51.8157 88.2601 51.7094C86.7205 51.607 85.2715 51.0715 84.2083 49.8981C83.4405 49.0516 82.9286 48.0357 82.7278 46.8584C82.3341 44.547 82.6176 42.2278 82.5546 39.9165C82.5428 39.5227 82.7475 39.251 83.2161 39.2825C83.9366 39.3298 84.6572 39.2668 85.3778 39.4203C85.7637 39.503 85.8503 39.6645 85.8464 40.0149C85.8346 41.7041 85.8424 43.3972 85.8464 45.0904C85.8542 47.1615 87.1458 48.2168 88.9885 48.4137C90.5793 48.5869 92.1779 48.5397 93.7726 48.5436C94.7649 48.5436 94.9145 48.331 94.6428 47.3899C94.5956 47.2324 94.5995 47.0592 94.5995 46.8938C94.5917 44.7006 94.5838 42.5074 94.5798 40.3142C94.5798 39.5385 94.6153 39.5109 95.387 39.4833C96.0092 39.4597 96.6037 39.1959 97.2534 39.3809C97.722 39.5148 98.1118 39.8653 97.9937 40.3378C97.7181 41.4324 97.9346 42.5271 97.9858 43.6099C98.037 44.7596 98.0331 45.9094 98.0567 47.0592C98.0843 48.3034 98.0685 49.5516 98.0685 50.7959C98.0685 51.4889 97.8638 51.6976 97.1747 51.7015C95.8005 51.7094 94.4263 51.7015 93.0481 51.7015C93.0481 51.7094 93.0481 51.7133 93.0481 51.7212V51.733ZM97.5291 45.5078C97.5291 45.5078 97.5291 45.5078 97.5251 45.5078C97.5251 43.9643 97.5212 42.4247 97.5251 40.8812C97.5291 39.7668 97.5369 39.7511 96.399 39.7668C95.0012 39.7826 95.0366 39.5266 95.0366 41.1647C95.0405 43.5784 95.0366 45.9921 95.0523 48.4098C95.0523 48.7799 94.9657 48.9216 94.5523 48.9138C93.1426 48.8862 91.7291 48.9138 90.3155 48.9138C89.4217 48.9138 88.5357 48.8311 87.6655 48.6184C86.5512 48.3468 85.618 47.323 85.5156 46.189C85.3502 44.3344 85.4841 42.4759 85.4447 40.6213C85.429 39.8535 85.366 39.7944 84.6178 39.7865C84.3028 39.7865 83.9839 39.818 83.6728 39.7826C83.1255 39.7156 82.9523 39.9676 82.9601 40.4756C82.9838 42.2042 82.9444 43.9328 83.0113 45.6574C83.0507 46.693 83.2279 47.7207 83.8185 48.6342C84.8935 50.2998 86.4567 51.0952 88.3821 51.2212C91.2566 51.4102 94.1388 51.233 97.0172 51.292C97.4543 51.2999 97.533 51.0637 97.5291 50.6935C97.5173 48.9649 97.5251 47.2403 97.5251 45.5117L97.5291 45.5078Z" fill="#988E7B"/>
<path d="M60.5831 32.7816C60.6934 32.7147 60.8036 32.7147 60.9139 32.7816C60.8036 32.8604 60.6934 32.8762 60.5831 32.7816Z" fill="#988E7B"/>
<path d="M0.122064 0.0920384C0.0826885 0.0684131 0.043313 0.0487261 0 0.0251008C0.102376 -0.0536502 0.078751 0.076286 0.118126 0.0959738V0.0920384H0.122064Z" fill="#988E7B"/>
<path d="M14.9272 15.4012C15.3013 15.3854 15.636 15.4091 15.9825 15.2437C16.5455 14.972 16.6715 15.6374 16.7227 15.8383C17.0535 17.2243 17.7937 18.4173 18.3962 19.6774C19.1364 21.2209 20.0263 22.6857 20.9635 24.1032C23.1724 27.458 25.5231 30.7104 28.118 33.7856C31.3074 37.5578 34.6425 41.1961 38.1272 44.7005C40.1826 46.7677 42.2892 48.7758 44.4549 50.7289C46.1165 52.2291 47.7427 53.7765 49.4989 55.1586C51.4676 56.7021 53.3419 58.3598 55.3776 59.8207C56.6376 60.7263 57.9055 61.6162 59.2285 62.4391C60.1342 63.0022 60.9296 63.7346 61.7683 64.4C62.1305 64.6875 62.0833 64.8489 61.6423 65.0379C61.2446 65.2072 60.8823 65.408 60.4374 65.3332C60.2681 65.3057 60.0909 65.2781 60.0279 65.097C59.9452 64.8489 60.1539 64.841 60.3114 64.7859C60.4256 64.7465 60.5201 64.6678 60.4886 64.5418C60.4531 64.3843 60.3311 64.3803 60.1814 64.3882C59.6774 64.4197 59.2443 64.5969 58.9135 64.9867C58.7088 65.2309 58.4686 65.3687 58.1418 65.3411C58.0355 65.3332 57.8622 65.3372 57.8268 65.4002C57.496 65.9632 56.9526 65.7782 56.4801 65.7821C52.0937 65.8254 47.7152 65.5419 43.3327 65.5144C41.3442 65.5026 39.3597 65.3962 37.3712 65.3135C36.8869 65.2939 36.4735 65.3805 36.0876 65.7152C35.2922 66.4121 34.4496 67.0539 33.666 67.7588C33.3234 68.0659 33.0675 68.0305 32.7446 67.7824C31.5791 66.8964 30.4057 66.0262 29.2441 65.1364C27.5077 63.8055 25.913 62.3171 24.3576 60.7775C24.1726 60.5924 24.0308 60.3444 23.6922 60.3247C23.4638 60.3129 23.5701 59.99 23.4165 59.8482C22.2628 58.7339 21.3336 57.4345 20.3453 56.1824C19.4711 55.072 18.7427 53.8671 18.0654 52.6307C17.8764 52.2881 17.9709 52.0204 18.2623 51.7526C18.9829 51.0951 19.668 50.3981 20.3807 49.7366C20.6051 49.5279 20.676 49.331 20.6406 49.0121C20.0224 43.6019 19.5971 38.176 19.4947 32.7264C19.4672 31.3522 19.4042 29.978 19.3687 28.6038C19.3609 28.1982 19.2467 27.8478 19.0104 27.517C17.0771 24.808 15.7344 21.7958 14.6161 18.6851C14.3129 17.8385 14.2066 16.9171 14.0294 16.0273C13.9231 15.476 14.0649 15.3421 14.6161 15.3933C14.7264 15.4051 14.8406 15.4051 14.9233 15.4091L14.9272 15.4012ZM37.2137 54.3672C37.1586 54.4026 37.1035 54.4341 37.0483 54.4695C35.7726 55.3712 34.4968 56.269 33.221 57.1707C32.8312 57.3203 32.8982 57.5684 33.099 57.8204C33.6187 58.4898 34.1503 59.1513 34.6701 59.8207C34.7843 59.9703 34.9299 60.0569 35.0993 59.9979C35.7332 59.7813 36.4262 59.7222 37.005 59.3442C38.3556 59.1513 39.6432 58.7339 40.8993 58.2102C41.3993 58.1748 41.8482 57.97 42.2892 57.7574C43.0728 57.3755 43.0846 57.3636 42.4349 56.7573C41.3521 55.7453 40.2574 54.753 39.1707 53.749C38.8951 53.2725 38.58 53.178 38.1548 53.5993C37.8831 53.8632 37.5642 54.0797 37.2649 54.316C37.2452 54.3278 37.2295 54.3435 37.2177 54.3672H37.2137ZM26.9052 52.1385C27.2123 52.7291 27.3344 52.7488 27.6494 52.2291C28.7795 50.3587 29.8978 48.4845 31.0278 46.6141C31.2838 46.1928 31.1971 45.8857 30.7443 45.6888C29.693 44.3619 28.6456 43.0349 27.5785 41.7198C27.4289 41.5347 27.2557 41.2827 26.9367 41.3851C26.6572 41.4756 26.7123 41.7473 26.669 41.9481C26.3382 43.472 26.0193 44.9997 25.7003 46.5236C25.4956 47.504 25.279 48.4845 25.0939 49.4689C25.0309 49.8075 24.9876 50.1579 25.2869 50.4572C25.8421 51.0045 26.3697 51.5754 26.9092 52.1385H26.9052Z" fill="#988E7B"/>
<path d="M70.7932 51.2802C68.7102 51.2802 67.2415 51.2645 65.7768 51.2881C65.2531 51.296 65.0562 51.1345 65.068 50.5872C65.1231 48.5279 64.9617 46.4606 65.2019 44.4092C65.5287 41.6056 67.8322 40.0503 70.1868 39.8534C73.388 39.5857 76.605 39.7826 79.8181 39.7392C80.2158 39.7353 80.389 39.8534 80.3851 40.2748C80.3693 42.2081 80.4244 44.1414 80.3575 46.0708C80.2551 49.0712 78.3179 51.0125 75.3529 51.2251C73.6282 51.3511 71.8996 51.2408 70.7893 51.2763L70.7932 51.2802ZM73.5928 42.2672C73.5928 42.2672 73.5928 42.2671 73.5928 42.2711C72.4233 42.2711 71.2539 42.2357 70.0844 42.279C68.344 42.3459 67.5762 43.157 67.525 44.9053C67.4975 45.8897 67.4778 46.8702 67.466 47.8545C67.4502 48.9256 67.4542 48.9452 68.5055 48.9295C70.8247 48.898 73.1479 49.0594 75.4592 48.8389C77.2035 48.6735 77.8257 47.9963 77.9044 46.2362C77.9517 45.1612 77.9398 44.0824 77.9438 43.0074C77.9438 42.3459 77.8453 42.2593 77.1523 42.2593C75.9632 42.2593 74.778 42.2593 73.5889 42.2593L73.5928 42.2672Z" fill="#988E7B"/>
<path d="M79.5148 60.112C78.6485 59.0213 78.2233 57.7101 77.5736 56.5171C77.1011 55.6429 76.6167 54.7649 76.0104 53.9695C75.9316 53.8632 75.8017 53.7568 75.9198 53.6387C76.0497 53.5088 76.1561 53.6663 76.2466 53.745C76.8215 54.2293 77.1759 54.8948 77.6602 55.4539C78.6013 56.5367 79.2077 57.8086 79.7904 59.104C80.0109 59.5962 79.9518 59.8837 79.5148 60.112Z" fill="#988E7B"/>
<path d="M30.9255 10.8494C31.7879 10.4478 32.3273 10.9242 32.851 11.2353C33.6897 11.7314 34.5166 12.263 35.2057 12.9796C35.6152 13.4009 36.1073 13.7435 36.5602 14.1215C36.6507 14.2002 36.8004 14.2514 36.6862 14.5507C34.7804 13.3261 32.8943 12.1134 30.9255 10.8455V10.8494Z" fill="#988E7B"/>
<path d="M33.3195 28.2613C33.2998 26.6075 33.2722 24.9538 33.414 23.3039C33.5675 21.5124 34.1542 19.8783 35.4339 18.5946C36.1584 17.8701 37.0168 17.2992 38.1115 17.1377C38.5564 17.0708 39.0014 16.9763 39.4581 16.929C40.0527 16.87 40.5921 17.0905 41.1394 17.2165C43.187 17.689 45.2581 17.8741 47.3529 17.8465C47.786 17.8386 48.2152 17.8504 48.4121 18.3623C48.4869 18.5553 48.6956 18.5001 48.857 18.508C49.3177 18.5356 49.7784 18.5041 50.2431 18.571C51.2511 18.7167 52.2197 19.075 53.275 18.9923C53.8341 18.949 54.2751 19.5003 54.2948 20.024C54.4247 23.9654 54.724 27.8991 54.5862 31.8484C54.5586 32.632 54.5783 32.6399 53.7672 32.6517C52.9482 32.6635 52.1331 32.6517 51.3141 32.6674C50.9518 32.6753 50.8219 32.5335 50.8258 32.1752C50.8455 30.3915 50.8416 28.6078 50.8613 26.8241C50.8691 26.1468 50.8337 26.0957 50.1564 26.0917C48.2625 26.0838 46.3685 26.076 44.4745 26.0405C42.116 25.9972 39.7574 26.0602 37.3988 26.0602C36.9223 26.0602 36.7255 26.198 36.7373 26.7296C36.7806 28.4936 36.753 30.2616 36.7806 32.0256C36.7845 32.4312 36.6821 32.5887 36.253 32.565C35.4379 32.5257 34.6189 32.5296 33.7999 32.5375C33.4376 32.5414 33.3116 32.4076 33.3155 32.0453C33.3313 30.7813 33.3195 29.5174 33.3195 28.2534V28.2613ZM44.0808 23.0677C44.0808 23.0401 44.0808 23.0126 44.0808 22.9889C46.2149 22.9889 48.3491 22.9811 50.4833 22.9968C50.9203 22.9968 51.0818 22.8551 51.066 22.418C51.0424 21.788 51.066 21.154 51.066 20.524C51.0699 19.7601 51.0739 19.7641 50.2982 19.7641C48.2192 19.7641 46.1401 19.7838 44.0611 19.7168C42.5767 19.6696 41.0883 19.7326 39.6274 20.0318C38.4265 20.2799 37.5051 20.8981 37.0877 22.1109C36.8396 22.8275 37.0129 23.0637 37.7847 23.0637C39.8834 23.0637 41.9821 23.0637 44.0769 23.0637L44.0808 23.0677Z" fill="#988E7B"/>
<path d="M56.7795 44.5075C58.5238 44.5075 60.2721 44.5154 62.0164 44.4996C62.4062 44.4996 62.5716 44.5863 62.5952 45.0155C62.6425 45.9841 62.7016 46.9724 62.4929 47.9017C62.1779 49.2995 61.3904 50.402 59.9138 50.8549C59.2326 51.0635 58.5475 51.2092 57.8348 51.2092C54.917 51.2092 52.0032 51.2014 49.0855 51.2171C48.6721 51.2171 48.5461 51.099 48.5421 50.6816C48.5343 48.9609 48.5225 48.957 50.2195 48.957C52.6529 48.957 55.0863 48.9766 57.5198 48.9688C58.2246 48.9688 58.9255 48.9451 59.5397 48.4923C60.0398 48.1222 60.1855 47.6064 60.2642 47.0472C60.3075 46.7559 60.1067 46.7007 59.8823 46.7007C59.5122 46.6968 59.1381 46.7007 58.768 46.7007C55.61 46.7007 52.4521 46.6968 49.2942 46.6929C48.5776 46.6929 48.5579 46.6889 48.5697 45.9487C48.5815 45.0233 48.5146 44.102 48.7193 43.1766C49.1682 41.1567 50.5897 40.2786 52.4443 39.9242C53.6176 39.6998 54.8147 39.8179 56.0038 39.814C57.9923 39.8061 59.9807 39.8337 61.9652 39.8218C62.3866 39.8218 62.5716 39.9439 62.5677 40.3849C62.5598 42.5506 62.8827 42.2041 60.906 42.2119C58.3033 42.2198 55.7045 42.2316 53.1018 42.2356C52.5703 42.2356 52.0977 42.3694 51.6331 42.649C51.1527 42.9364 50.944 43.3381 50.8929 43.8736C50.8495 44.3225 50.9992 44.5154 51.4756 44.5115C53.2396 44.4957 55.0037 44.5036 56.7716 44.5036L56.7795 44.5075Z" fill="#988E7B"/>
<path d="M100.002 45.551C100.002 43.9169 100.002 42.2828 100.002 40.6448C100.002 39.8455 100.045 39.8691 100.841 39.7825C102.506 39.6053 103.802 40.503 105.164 41.1842C106.9 42.0505 108.361 43.3026 109.85 44.5311C110.873 45.3777 111.724 46.3739 112.677 47.2795C112.811 47.4055 112.953 47.6694 113.169 47.5749C113.39 47.4804 113.279 47.2087 113.279 47.0197C113.287 44.8816 113.279 42.7474 113.287 40.6093C113.287 39.7982 113.331 39.7667 114.142 39.7667C115.709 39.7588 115.689 39.7588 115.681 41.3181C115.669 44.3854 115.681 47.4489 115.689 50.5162C115.689 51.2368 115.595 51.3273 114.89 51.284C114.76 51.2762 114.622 51.2368 114.5 51.2643C113.362 51.5163 112.669 51.0045 112.011 50.0949C110.657 48.2285 109.066 46.555 107.294 45.0784C106.018 44.0153 104.609 43.153 103.002 42.6569C102.36 42.46 102.357 42.46 102.357 43.1097C102.364 45.5982 102.357 48.0907 102.4 50.5792C102.408 51.1305 102.215 51.3077 101.699 51.2762C101.349 51.2565 100.994 51.2919 100.64 51.2958C100.222 51.3037 99.994 51.158 100.002 50.6776C100.022 48.9687 100.01 47.2599 100.01 45.551H100.002Z" fill="#988E7B"/>
<path d="M125.679 51.2879C123.505 51.2879 121.331 51.2958 119.158 51.284C118.315 51.2801 118.3 51.2328 118.304 50.3941C118.311 48.6852 118.303 46.9763 118.307 45.2674C118.307 44.7319 118.567 44.4524 119.087 44.4287C119.382 44.4169 119.686 44.4366 119.977 44.3972C120.465 44.3303 120.638 44.5114 120.631 45.0076C120.611 46.1022 120.654 47.2008 120.631 48.2954C120.619 48.7955 120.824 48.9372 121.292 48.9254C124.115 48.8545 126.939 48.8545 129.762 48.8979C130.171 48.9057 130.392 48.7837 130.396 48.3427C130.411 46.8936 130.439 45.4486 130.313 44.0035C130.285 43.6924 130.041 43.59 129.884 43.3971C129.23 42.6056 128.372 42.3025 127.372 42.3064C124.844 42.3064 122.32 42.3182 119.792 42.2985C118.024 42.2867 118.248 42.2001 118.296 40.7156C118.323 39.8021 118.351 39.806 119.256 39.8021C121.985 39.7864 124.722 39.6958 127.446 39.8297C129.474 39.9281 131.203 40.692 132.227 42.5899C132.573 43.2317 132.77 43.9247 132.829 44.6571C132.991 46.6968 132.888 48.7404 132.935 50.7839C132.943 51.2053 132.758 51.3273 132.364 51.3273C130.136 51.3155 127.907 51.3234 125.679 51.3234V51.2879Z" fill="#988E7B"/>
<path d="M97.5291 45.5077C97.5291 47.2363 97.5252 48.9609 97.5331 50.6895C97.5331 51.0636 97.4582 51.2999 97.0212 51.288C94.1428 51.229 91.2645 51.4062 88.3861 51.2172C86.4607 51.0912 84.8975 50.2958 83.8225 48.6302C83.2319 47.7167 83.0547 46.6929 83.0153 45.6534C82.9484 43.9288 82.9878 42.2002 82.9641 40.4716C82.9563 39.9637 83.1256 39.7116 83.6768 39.7786C83.9879 39.818 84.3068 39.7786 84.6218 39.7825C85.37 39.7865 85.433 39.8495 85.4487 40.6173C85.4881 42.4719 85.3542 44.3343 85.5196 46.185C85.622 47.319 86.5552 48.3388 87.6695 48.6144C88.5397 48.8271 89.4256 48.9098 90.3195 48.9098C91.733 48.9098 93.1427 48.8822 94.5563 48.9098C94.9697 48.9176 95.0563 48.7759 95.0563 48.4058C95.0406 45.992 95.0445 43.5783 95.0406 41.1607C95.0406 39.5227 95.0012 39.7786 96.403 39.7628C97.5409 39.751 97.5331 39.7628 97.5291 40.8772C97.5212 42.4207 97.5291 43.9603 97.5291 45.5038C97.5291 45.5038 97.5291 45.5038 97.5331 45.5038L97.5291 45.5077Z" fill="#988E7B"/>
<path d="M73.5927 42.2672C74.7818 42.2672 75.967 42.2672 77.1562 42.2672C77.8492 42.2672 77.9476 42.3538 77.9476 43.0154C77.9476 44.0903 77.9555 45.1692 77.9082 46.2441C77.8295 48.0003 77.2074 48.6775 75.463 48.8469C73.1477 49.0674 70.8246 48.9059 68.5093 48.9374C67.4619 48.9532 67.4541 48.9374 67.4698 47.8625C67.4816 46.8781 67.5013 45.8976 67.5289 44.9133C67.5801 43.165 68.3479 42.3499 70.0883 42.2869C71.2577 42.2436 72.4272 42.279 73.5966 42.279C73.5966 42.279 73.5966 42.279 73.5966 42.2751L73.5927 42.2672ZM73.5848 42.598C73.5848 42.598 73.5848 42.6295 73.5848 42.6452C72.4705 42.6452 71.3522 42.6255 70.2379 42.6492C68.8913 42.6767 67.9935 43.5981 67.9738 44.9369C67.9581 45.9016 67.9738 46.8702 67.9462 47.8349C67.9305 48.3114 68.0801 48.4846 68.5802 48.4767C70.6041 48.4492 72.6319 48.461 74.6558 48.457C75.0653 48.457 75.4709 48.4216 75.8725 48.3153C77.0223 48.016 77.6917 47.0474 77.5184 45.8661C77.3964 45.0314 77.3885 44.2084 77.4987 43.3737C77.5736 42.7949 77.3845 42.594 76.8215 42.594C75.7426 42.594 74.6676 42.594 73.5887 42.594L73.5848 42.598Z" fill="#988E7B"/>
<path d="M44.0809 23.0675C41.9822 23.0675 39.8834 23.0675 37.7887 23.0675C37.0169 23.0675 36.8437 22.8313 37.0917 22.1146C37.5091 20.9019 38.4305 20.2837 39.6314 20.0356C41.0923 19.7324 42.5807 19.6694 44.0651 19.7206C46.1442 19.7875 48.2232 19.7678 50.3022 19.7678C51.0779 19.7678 51.0779 19.7678 51.07 20.5278C51.0661 21.1578 51.0464 21.7917 51.07 22.4218C51.0858 22.8588 50.9243 23.0045 50.4873 23.0006C48.3531 22.9848 46.219 22.9927 44.0848 22.9927C44.0848 23.0203 44.0848 23.0478 44.0848 23.0715L44.0809 23.0675ZM45.9748 20.2443C43.8092 20.26 41.6357 20.1143 39.5015 20.6853C38.7061 20.8979 37.9698 21.1696 37.6981 22.0477C37.5406 22.5556 37.6824 22.7328 38.2061 22.7249C38.5762 22.721 38.9502 22.6383 39.3125 22.6738C41.108 22.8431 42.9075 22.7328 44.7069 22.7564C45.6165 22.7683 46.53 22.7761 47.4357 22.7171C48.2192 22.6619 48.9831 22.4454 49.7785 22.7171C50.2471 22.8785 50.4439 22.5871 50.4164 22.1107C50.3928 21.6657 50.3849 21.2169 50.4164 20.7759C50.4479 20.3467 50.2668 20.2325 49.8651 20.2404C48.5657 20.26 47.2663 20.2482 45.967 20.2482L45.9748 20.2443Z" fill="#988E7B"/>
</svg>
