<svg width="44" height="30" viewBox="0 0 44 30" fill="none" xmlns="http://www.w3.org/2000/svg">
<path d="M17.528 0.647949C18.7867 0.647949 19.8 1.23462 20.568 2.40795C21.3573 3.58128 21.752 5.02128 21.752 6.72795C21.752 9.37328 21.1547 12.1146 19.96 14.952C18.7653 17.7893 17.2933 20.2746 15.544 22.4079C13.816 24.5199 11.9493 26.2693 9.94401 27.656C7.96001 29.0213 6.17868 29.704 4.60001 29.704C3.32001 29.704 2.28535 29.128 1.49601 27.976C0.706678 26.824 0.312012 25.384 0.312012 23.656C0.312012 21.0106 0.909345 18.2693 2.10401 15.4319C3.29868 12.5946 4.77068 10.1199 6.52001 8.00795C8.26935 5.87462 10.1467 4.11462 12.152 2.72795C14.1573 1.34128 15.9493 0.647949 17.528 0.647949ZM19.096 7.52795C19.096 5.84262 18.84 4.51995 18.328 3.55995C17.8373 2.57862 17.1227 2.08795 16.184 2.08795C14.4773 2.08795 12.6533 3.02662 10.712 4.90395C8.62135 6.97328 6.81868 9.67195 5.30401 13C3.81068 16.328 3.06401 19.432 3.06401 22.312C3.06401 24.0186 3.34135 25.384 3.89601 26.408C4.47201 27.4106 5.22935 27.912 6.16801 27.912C8.02401 27.912 9.91201 26.92 11.832 24.936C13.8587 22.824 15.576 20.1253 16.984 16.84C18.392 13.5333 19.096 10.4293 19.096 7.52795Z" fill="#988E7B"/>
<path d="M36.5925 12.424C37.8938 12.8293 38.9605 13.5653 39.7925 14.6319C40.6245 15.6773 41.0405 17.0426 41.0405 18.728C41.0405 21.4373 39.6645 23.9439 36.9125 26.2479C34.1818 28.5519 30.9712 29.704 27.2805 29.704C24.6778 29.704 22.6725 29.0426 21.2645 27.7199C20.6458 27.1439 20.3365 26.5999 20.3365 26.0879C20.3365 25.8319 20.4218 25.6186 20.5925 25.448C20.9338 25.192 21.2965 24.8719 21.6805 24.4879C22.0645 24.1039 22.3632 23.7946 22.5765 23.5599C22.8112 23.3039 22.9392 23.1759 22.9605 23.1759C23.0885 23.1759 23.1525 23.2613 23.1525 23.4319L23.0245 23.5599C22.9605 23.6453 22.8858 23.7946 22.8005 24.0079C22.7365 24.2213 22.7045 24.4666 22.7045 24.7439C22.7045 24.9359 22.8325 25.2346 23.0885 25.6399C23.3445 26.0453 23.6965 26.4826 24.1445 26.952C24.5925 27.4 25.2112 27.7946 26.0005 28.136C26.8112 28.4773 27.6645 28.648 28.5605 28.648C31.2272 28.648 33.4778 27.7626 35.3125 25.992C37.1685 24.2213 38.0965 22.0133 38.0965 19.368C38.0965 17.768 37.6165 16.4026 36.6565 15.2719C35.6965 14.1199 34.4698 13.544 32.9765 13.544C32.6138 13.544 32.2618 13.5973 31.9205 13.7039C31.6005 13.7893 31.3765 13.8319 31.2485 13.8319C31.0992 13.8319 31.0245 13.7679 31.0245 13.6399C31.0245 13.4693 31.3125 13.2346 31.8885 12.9359C32.4858 12.6159 33.0512 12.4133 33.5845 12.3279C37.1045 11.6239 39.3445 10.1306 40.3045 7.84795C40.6032 7.12262 40.7525 6.33328 40.7525 5.47995C40.7525 3.11195 39.4405 1.92795 36.8165 1.92795C36.1338 1.92795 35.4938 2.08795 34.8965 2.40795C34.2992 2.72795 33.7978 3.04795 33.3925 3.36795C32.9872 3.66662 32.6778 3.81595 32.4645 3.81595H32.4325C32.3685 3.81595 32.3365 3.74128 32.3365 3.59195V3.55995C32.3365 3.43195 32.6458 3.14395 33.2645 2.69595C33.8832 2.22662 34.6938 1.76795 35.6965 1.31995C36.7205 0.871949 37.6485 0.647949 38.4805 0.647949C40.2512 0.647949 41.5738 1.06395 42.4485 1.89595C43.3232 2.70662 43.7605 3.79462 43.7605 5.15995C43.7605 6.48262 43.0565 7.83728 41.6485 9.22395C40.2405 10.5893 38.5552 11.6559 36.5925 12.424Z" fill="#988E7B"/>
</svg>
