<svg width="28" height="28" viewBox="0 0 28 28" fill="none" xmlns="http://www.w3.org/2000/svg">
<path id="Union" fill-rule="evenodd" clip-rule="evenodd" d="M27.7803 1.28033C28.0732 0.987437 28.0732 0.512563 27.7803 0.21967C27.4874 -0.0732233 27.0126 -0.0732233 26.7197 0.21967L14.25 12.6893L1.78033 0.219674C1.48744 -0.0732174 1.01256 -0.073219 0.719669 0.219674C0.426776 0.512567 0.426778 0.987443 0.719669 1.28033L13.1893 13.75L0.719672 26.2197C0.42678 26.5126 0.426778 26.9874 0.719672 27.2803C1.01256 27.5732 1.48744 27.5732 1.78033 27.2803L14.25 14.8107L26.7197 27.2803C27.0126 27.5732 27.4874 27.5732 27.7803 27.2803C28.0732 26.9874 28.0732 26.5126 27.7803 26.2197L15.3107 13.75L27.7803 1.28033Z" fill="#473F30"/>
</svg>
