<svg width="203" height="78" fill="none" xmlns="http://www.w3.org/2000/svg"><path d="M72.49 51.086v-.453l2.631-.454V19.874l-2.63-.453v-.454h11.976v.454l-2.677.453v30.532h7.486c.725 0 1.376-.197 1.95-.59.575-.423 1.09-1.089 1.543-1.996.484-.938.938-2.147 1.36-3.63l1.18-5.715h.817l1.406 12.611H72.49ZM117.354 18.967c2.632 0 4.839.333 6.624.998 1.784.635 3.115 1.588 3.992 2.858.907 1.24 1.361 2.782 1.361 4.627 0 3.025-1.21 5.354-3.629 6.987-2.42 1.633-5.837 2.45-10.253 2.45a46.822 46.822 0 0 1-5.444-.318v-.998c1.028.393 2.48.59 4.355.59 2.601 0 4.628-.726 6.079-2.178 1.452-1.482 2.178-3.569 2.178-6.26 0-1.755-.287-3.221-.862-4.401-.575-1.21-1.422-2.117-2.541-2.722-1.088-.605-2.434-.907-4.037-.907-.605 0-1.24.015-1.906.045-.665 0-1.27.03-1.814.09-.514.031-.908.076-1.18.137v30.123l2.631.545v.453h-11.931v-.453l2.631-.545V19.965l-2.631-.544v-.454h16.377ZM166.035 18.967v.454l-2.631.544v30.123l2.631.545v.453H154.33v-.453l2.405-.545V19.965l-2.405-.544v-.454h11.705Zm-21.368 0v.454l-2.359.544v30.123l2.359.545v.453h-11.659v-.453l2.632-.545V19.965l-2.632-.544v-.454h11.659Zm12.431 16.014v1.089h-15.243v-.454l15.243-.635ZM168.635 51.086v-.453l2.722-.545 12.34-31.121h4.264l12.068 31.121 2.631.545v.453h-12.975v-.317l3.221-.635-10.071-26.04h-.499l-4.31 11.522a32.81 32.81 0 0 0-1.542 4.718c-.333 1.513-.5 2.828-.5 3.947 0 1.21.212 2.299.636 3.267a4.847 4.847 0 0 0 1.996 2.268c.907.544 2.087.817 3.538.817v.453h-13.519Zm7.758-13.02v-.454l12.113-.635v1.09h-12.113Z" fill="#473F30"/><path d="M4.167 77.983C1.39 77.983 0 77.086 0 75.29c0-1.273.376-2.2 1.129-2.778a6.017 6.017 0 0 0-.26 1.736c0 1.679 1.157 2.518 3.472 2.518 3.936 0 8.538-1.968 13.805-5.904-1.216-.636-2.258-1.33-3.126-2.083-4.862 3.82-8.422 5.73-10.679 5.73-.868 0-1.302-.26-1.302-.781 0-.406.231-.608.694-.608.116 0 .29.029.521.087.174.058.319.086.434.086 2.2 0 5.441-1.678 9.724-5.035-1.91-1.852-2.865-3.734-2.865-5.644 0-4.051 3.734-7.669 11.2-10.852a35.416 35.416 0 0 1 4.95-1.65c1.851-.521 3.848-.984 5.99-1.39.752-.983 1.447-1.91 2.084-2.777a37.282 37.282 0 0 0 1.65-2.605c-.174-1.505-.261-2.75-.261-3.733 0-3.647.666-5.47 1.997-5.47.81 0 1.447.926 1.91 2.778.579-.81 1.273-1.939 2.084-3.386.81-1.505 1.707-3.328 2.691-5.47a161.562 161.562 0 0 0 4.254-9.637c1.332-3.3 2.576-6.685 3.734-10.158.231-.637.492-1.1.781-1.39.058.058.087.174.087.348 0 4.399-4.023 14.094-12.068 29.085.81-.405 1.447-.608 1.91-.608.347 0 .52.203.52.608 0 1.505-2.315 4.052-6.945 7.64a29.529 29.529 0 0 1-1.476 2.258c-.521.752-1.1 1.534-1.736 2.344 1.273-.231 2.72-.405 4.34-.52a178.682 178.682 0 0 0 6.686-10.072 193.136 193.136 0 0 0 6.164-10.766c5.094-9.493 7.64-16.612 7.64-21.358 0-2.779-1.244-4.37-3.733-4.776-.52-.115-.781-.289-.781-.52 0-.348.318-.521.955-.521 2.257 0 3.994.723 5.21 2.17 1.215 1.39 1.822 3.213 1.822 5.47 0 5.036-2.402 11.953-7.206 20.75a133.47 133.47 0 0 1-5.904 9.811 203.335 203.335 0 0 1-6.772 9.464c.984-.116 2.373-.203 4.168-.26a364.69 364.69 0 0 1 6.425-.348c1.678-.058 2.894-.087 3.646-.087.752-.058 1.1-.087 1.042-.087.347 0 .52.087.52.261 0 .579-.578.926-1.736 1.042-1.1.058-2.749.173-4.949.347-2.141.116-4.109.26-5.903.434-1.737.116-3.27.26-4.602.434-7.409 9.261-14.5 16.41-21.271 21.445 1.505.753 4.225 1.476 8.16 2.171.522.058.782.231.782.52 0 .29-.29.435-.868.435-2.547 0-5.556-.81-9.03-2.431-6.02 4.283-11.2 6.425-15.54 6.425Zm68.764-5.644c-2.142 0-4.37-.926-6.686-2.778-2.257-1.852-3.878-3.878-4.862-6.078-1.273-2.778-1.91-6.772-1.91-11.98 0-1.564.232-4.37.695-8.423.463-4.11.984-9.434 1.563-15.975l.78-8.769c.059-1.1.261-1.65.609-1.65.636 0 .955.637.955 1.91v14.587c0 15.917 1.302 26.886 3.907 32.905 1.563 3.589 3.386 5.383 5.47 5.383 2.72 0 5.73-2.633 9.029-7.9-.058 1.1-.695 2.46-1.91 4.08-1.273 1.737-2.402 2.894-3.386 3.473-1.447.81-2.865 1.215-4.254 1.215Zm-53.743-2.257c5.788-4.63 11.952-11.287 18.493-19.97-.868.175-1.737.377-2.605.609-.81.173-1.62.376-2.43.608-4.979 5.961-10.362 11.373-16.15 16.235.29.463.666.897 1.129 1.303.463.405.984.81 1.563 1.215Zm-3.126-3.126a95.524 95.524 0 0 0 7.64-7.032 148.083 148.083 0 0 0 7.554-8.161c-3.762 1.215-7.033 2.778-9.81 4.688-3.937 2.605-5.905 5.296-5.905 8.074 0 .81.174 1.621.521 2.431ZM142.284 61.936l2.211 5.388h.202l.997-2.819c.062-.166.104-.358.125-.576.031-.228.046-.467.046-.716 0-.198-.02-.395-.062-.592a1.49 1.49 0 0 0-.233-.56 1.262 1.262 0 0 0-.452-.421c-.177-.114-.405-.172-.685-.172v-.155h3.535v.155l-.966.156-2.772 7.476h-1.339l-1.729-4.236 1.122-2.928ZM138.39 69.1l-3.083-7.476-.873-.14v-.171h4.19v.171l-.95.14 2.32 5.7h.203l.996-2.819c.063-.166.109-.358.141-.576.031-.228.046-.467.046-.716 0-.198-.026-.395-.078-.592a1.49 1.49 0 0 0-.233-.56 1.134 1.134 0 0 0-.436-.421c-.187-.114-.421-.172-.701-.172v-.155h3.535v.155l-.965.156-2.773 7.476h-1.339ZM152.632 61.08c.862 0 1.573.17 2.134.513.56.343.981.8 1.261 1.37.28.572.421 1.215.421 1.932h-5.903v-.156l3.878-.203c0-.695-.062-1.287-.187-1.775-.124-.488-.322-.857-.592-1.106-.259-.26-.602-.389-1.027-.389-.416 0-.779.135-1.091.405-.301.27-.534.68-.7 1.23-.156.54-.234 1.236-.234 2.087 0 .467.057.919.171 1.355.125.426.301.815.53 1.168.239.343.529.618.872.825.343.198.742.296 1.199.296.28 0 .561-.041.841-.124.28-.083.545-.203.794-.358a3.54 3.54 0 0 0 .686-.561 3 3 0 0 0 .513-.794l.172.155c-.239.488-.514.888-.826 1.2a3.61 3.61 0 0 1-.981.731c-.353.167-.711.28-1.074.343a5.477 5.477 0 0 1-1.075.11c-.644 0-1.215-.11-1.713-.328a3.868 3.868 0 0 1-1.277-.888 4.253 4.253 0 0 1-.794-1.292 4.397 4.397 0 0 1-.265-1.51c0-.655.104-1.242.311-1.76.218-.52.514-.961.888-1.325.384-.373.836-.659 1.355-.856a4.784 4.784 0 0 1 1.713-.296ZM166.096 57.497V68.54h.919v.171l-3.099.623v-2.476l-.125-.125c-.104.291-.244.592-.42.904a4.316 4.316 0 0 1-.608.84c-.238.25-.519.457-.841.624a2.297 2.297 0 0 1-1.043.233 2.76 2.76 0 0 1-1.651-.514c-.467-.342-.83-.81-1.09-1.401-.26-.603-.389-1.278-.389-2.025 0-.966.155-1.765.467-2.398.311-.644.727-1.122 1.246-1.433a3.263 3.263 0 0 1 1.728-.483c.509 0 .945.083 1.309.25.373.165.68.368.918.607.239.228.405.462.499.7v-4.345h-.903v-.17l3.083-.624Zm-4.033 4.112a1.51 1.51 0 0 0-1.106.467c-.312.3-.55.716-.717 1.246-.166.53-.249 1.131-.249 1.806 0 .758.068 1.397.203 1.916.135.508.327.893.576 1.152.26.25.566.374.919.374.27 0 .514-.067.732-.202.218-.146.42-.343.607-.592.187-.26.353-.556.498-.888.146-.343.276-.716.39-1.121V63.99c0-.322-.047-.628-.14-.919a2.312 2.312 0 0 0-.39-.763 1.86 1.86 0 0 0-.591-.514 1.509 1.509 0 0 0-.732-.186ZM176.392 57.497V68.54h.919v.171l-3.099.623v-2.476l-.125-.125c-.103.291-.244.592-.42.904a4.353 4.353 0 0 1-.607.84 3.18 3.18 0 0 1-.841.624c-.312.155-.66.233-1.044.233a2.76 2.76 0 0 1-1.651-.514c-.467-.342-.83-.81-1.09-1.401-.259-.603-.389-1.278-.389-2.025 0-.966.156-1.765.467-2.398.312-.644.727-1.122 1.246-1.433a3.269 3.269 0 0 1 1.729-.483c.508 0 .944.083 1.308.25.374.165.68.368.919.607.238.228.405.462.498.7v-4.345h-.903v-.17l3.083-.624Zm-4.033 4.112c-.426 0-.794.155-1.106.467-.311.3-.55.716-.716 1.246-.166.53-.249 1.131-.249 1.806 0 .758.067 1.397.202 1.916.135.508.327.893.576 1.152.26.25.566.374.919.374.27 0 .514-.067.732-.202.218-.146.42-.343.607-.592.187-.26.353-.556.499-.888.145-.343.275-.716.389-1.121V63.99c0-.322-.047-.628-.14-.919a2.31 2.31 0 0 0-.389-.763 1.874 1.874 0 0 0-.592-.514 1.509 1.509 0 0 0-.732-.186ZM180.148 59.911a2.46 2.46 0 0 1-.81-.125 1.409 1.409 0 0 1-.545-.373.866.866 0 0 1-.203-.56c0-.209.068-.39.203-.546.135-.166.316-.29.545-.374a2.21 2.21 0 0 1 .81-.14c.311 0 .581.047.81.14.238.083.425.208.56.374a.807.807 0 0 1 .203.545.866.866 0 0 1-.203.56c-.135.157-.322.281-.56.374a2.378 2.378 0 0 1-.81.125Zm-1.854 9.189v-.156l.841-.156v-6.977h-.918v-.171l3.099-.56v7.708l.841.156v.156h-3.863ZM192.938 68.944v.156h-3.908v-.156l.825-.156v-5.28c0-.55-.094-.965-.28-1.245-.187-.28-.457-.42-.81-.42-.239 0-.483.093-.732.28-.239.176-.473.41-.701.7a8.14 8.14 0 0 0-.592.873 7.015 7.015 0 0 0-.42.825v4.267l.825.156v.156h-3.847v-.156l.841-.156v-6.977h-.903v-.171l3.084-.56v2.553l.124.11c.26-.53.551-.992.872-1.387a3.724 3.724 0 0 1 1.106-.934 2.68 2.68 0 0 1 1.339-.343c.426 0 .784.068 1.075.203.291.124.519.311.685.56.177.239.307.53.39.872.083.333.124.701.124 1.106v4.968l.903.156ZM197.341 72.448a5.96 5.96 0 0 1-1.479-.171 4.174 4.174 0 0 1-1.153-.468 2.425 2.425 0 0 1-.747-.638c-.177-.239-.265-.483-.265-.732 0-.26.062-.488.187-.685a1.25 1.25 0 0 1 .514-.437c.218-.103.457-.155.716-.155.426 0 .763.093 1.013.28.249.187.373.431.373.732 0 .239-.052.431-.155.576-.094.156-.218.28-.374.374a1.999 1.999 0 0 1-.452.218 7.198 7.198 0 0 0-.389.14c-.094.042-.14.094-.14.156 0 .093.088.187.264.28.187.094.431.166.732.218.312.063.644.094.997.094.571 0 1.07-.088 1.495-.265.436-.166.769-.405.997-.716a1.63 1.63 0 0 0 .358-1.044c0-.353-.099-.659-.296-.919-.187-.249-.483-.451-.887-.607-.405-.166-.94-.285-1.605-.358a22.5 22.5 0 0 0-2.398-.11v-.233l2.009-1.573.171.125-.996.81.093.14c.831 0 1.573.031 2.227.093.665.063 1.241.161 1.729.296.488.125.888.286 1.199.483.322.187.561.415.716.685.156.27.234.571.234.903 0 .572-.192 1.039-.576 1.402-.384.374-.929.649-1.635.826-.696.186-1.521.28-2.477.28Zm.499-5.793c-.551 0-1.07-.052-1.558-.156a4.326 4.326 0 0 1-1.292-.483 2.722 2.722 0 0 1-.872-.81 2.126 2.126 0 0 1-.312-1.152c0-.436.104-.836.312-1.2.207-.363.493-.674.856-.934.374-.27.805-.477 1.293-.623a5.76 5.76 0 0 1 1.619-.218c.509 0 1.002.073 1.48.218.488.135.924.332 1.308.592.395.26.706.571.935.934.228.364.342.774.342 1.23 0 .343-.083.675-.249.997-.156.312-.4.592-.732.841-.332.24-.758.426-1.277.561-.519.135-1.137.203-1.853.203Zm.046-.187c.405 0 .743-.089 1.013-.265.27-.177.477-.431.623-.763.145-.343.218-.748.218-1.215 0-.54-.068-1.033-.203-1.48-.135-.446-.342-.804-.623-1.074-.27-.27-.612-.405-1.028-.405-.404 0-.747.135-1.027.405-.281.27-.488.628-.623 1.075-.135.446-.203.94-.203 1.479 0 .457.068.857.203 1.2.145.331.358.59.638.778.28.176.618.265 1.012.265Zm1.231-5.046-.919-.265c.228-.01.467-.047.716-.11.249-.072.493-.16.732-.264.239-.114.462-.228.67-.342.218-.125.415-.24.592-.343.176-.114.327-.213.451-.296l.561 1.355h-2.803v.265Z" fill="#473F30"/></svg>