<svg width="32" height="33" viewBox="0 0 32 33" fill="none" xmlns="http://www.w3.org/2000/svg">
<g id="ic:baseline-telegram">
<path id="Vector" d="M16 3.63452C8.64002 3.63452 2.66669 9.60785 2.66669 16.9679C2.66669 24.3279 8.64002 30.3012 16 30.3012C23.36 30.3012 29.3334 24.3279 29.3334 16.9679C29.3334 9.60785 23.36 3.63452 16 3.63452ZM22.1867 12.7012C21.9867 14.8079 21.12 19.9279 20.68 22.2879C20.4934 23.2879 20.12 23.6212 19.7734 23.6612C19 23.7279 18.4134 23.1545 17.6667 22.6612C16.4934 21.8879 15.8267 21.4079 14.6934 20.6612C13.3734 19.7945 14.2267 19.3145 14.9867 18.5412C15.1867 18.3412 18.6 15.2345 18.6667 14.9545C18.6759 14.9121 18.6747 14.8681 18.6631 14.8263C18.6515 14.7844 18.6298 14.7461 18.6 14.7145C18.52 14.6479 18.4134 14.6745 18.32 14.6879C18.2 14.7145 16.3334 15.9545 12.6934 18.4079C12.16 18.7679 11.68 18.9545 11.2534 18.9412C10.7734 18.9279 9.86669 18.6745 9.18669 18.4479C8.34669 18.1812 7.69335 18.0345 7.74669 17.5679C7.77335 17.3279 8.10669 17.0879 8.73335 16.8345C12.6267 15.1412 15.2134 14.0212 16.5067 13.4879C20.2134 11.9412 20.9734 11.6745 21.48 11.6745C21.5867 11.6745 21.84 11.7012 22 11.8345C22.1334 11.9412 22.1734 12.0879 22.1867 12.1945C22.1734 12.2745 22.2 12.5145 22.1867 12.7012Z" fill="#988E7B"/>
</g>
</svg>
