<svg width="32" height="33" viewBox="0 0 32 33" fill="none" xmlns="http://www.w3.org/2000/svg">
<g id="whatsapp-svgrepo-com 1" clip-path="url(#clip0_2_518)">
<path id="Vector" d="M8.01867 11.6426C8.17103 10.4376 9.73703 8.79996 10.9798 8.98168L10.9779 8.97969C12.1873 9.20953 13.1448 11.2913 13.6847 12.2273C14.0672 12.9065 13.8188 13.5946 13.462 13.8849C12.9807 14.2729 12.228 14.8082 12.3859 15.3456C12.6667 16.3011 16 19.6344 17.6395 20.582C18.26 20.9407 18.71 19.9947 19.0943 19.51C19.3735 19.1372 20.0621 18.9144 20.7397 19.2824C21.7517 19.8718 22.7051 20.5567 23.5867 21.3278C24.0269 21.6958 24.1303 22.2396 23.8252 22.8144C23.2879 23.8268 21.7337 25.1619 20.6056 24.8906C18.6352 24.4168 10.6667 21.3278 8.10711 12.3785C7.96316 11.9551 7.9994 11.795 8.01867 11.6426Z" fill="#988E7B"/>
<path id="Vector_2" fill-rule="evenodd" clip-rule="evenodd" d="M16 31.6344C14.3685 31.6344 13.4658 31.4593 12 30.9677L9.19255 32.3714C7.41947 33.258 5.33331 31.9686 5.33331 29.9862V26.9677C2.46205 24.2904 1.33331 21.2033 1.33331 16.9677C1.33331 8.86752 7.89981 2.30103 16 2.30103C24.1001 2.30103 30.6666 8.86752 30.6666 16.9677C30.6666 25.0678 24.1001 31.6344 16 31.6344ZM7.99998 25.8081L7.15191 25.0173C4.92114 22.9373 3.99998 20.6118 3.99998 16.9677C3.99998 10.3403 9.37257 4.96769 16 4.96769C22.6274 4.96769 28 10.3403 28 16.9677C28 23.5952 22.6274 28.9677 16 28.9677C14.6857 28.9677 14.0693 28.849 12.8479 28.4394L11.7979 28.0873L7.99998 29.9862V25.8081Z" fill="#988E7B"/>
</g>
<defs>
<clipPath id="clip0_2_518">
<rect width="32" height="32" fill="white" transform="translate(0 0.967773)"/>
</clipPath>
</defs>
</svg>
